<svg class="animated" id="freepik_stories-online-connection" xmlns="http://www.w3.org/2000/svg" viewBox="0 0 500 500" version="1.1" xmlns:xlink="http://www.w3.org/1999/xlink" xmlns:svgjs="http://svgjs.com/svgjs"><style>svg#freepik_stories-online-connection:not(.animated) .animable {opacity: 0;}svg#freepik_stories-online-connection.animated #freepik--background-complete--inject-1 {animation: 1s 1 forwards cubic-bezier(.36,-0.01,.5,1.38) fadeIn;animation-delay: 0s;}svg#freepik_stories-online-connection.animated #freepik--Earth--inject-1 {animation: 6s Infinite  linear spin;animation-delay: 1.5s;}svg#freepik_stories-online-connection.animated #freepik--character-6--inject-1 {animation: 1s 1 forwards cubic-bezier(.36,-0.01,.5,1.38) slideUp;animation-delay: 1.0s;opacity: 0}svg#freepik_stories-online-connection.animated #freepik--character-5--inject-1 {animation: 0.5s 1 forwards cubic-bezier(.36,-0.01,.5,1.38) slideRight;animation-delay: 0s;}svg#freepik_stories-online-connection.animated #freepik--character-4--inject-1 {animation: 0.6s 1 forwards cubic-bezier(.36,-0.01,.5,1.38) slideDown;animation-delay: 0.3s;opacity: 0}svg#freepik_stories-online-connection.animated #freepik--character-3--inject-1 {animation: 1s 1 forwards cubic-bezier(.36,-0.01,.5,1.38) slideLeft;animation-delay: 0.8s;opacity: 0}svg#freepik_stories-online-connection.animated #elqnb6nd9wuh {animation: 1.0s 1 forwards cubic-bezier(.36,-0.01,.5,1.38) slideUp;animation-delay: 0.6s;opacity: 0}svg#freepik_stories-online-connection.animated #ele2011rv4l8t {animation: 1.0s 1 forwards cubic-bezier(.36,-0.01,.5,1.38) slideUp;animation-delay: 0.034482758620689655s;opacity: 0}svg#freepik_stories-online-connection.animated #elfyydkbw6naj {animation: 1.0s 1 forwards cubic-bezier(.36,-0.01,.5,1.38) slideUp;animation-delay: 0.06896551724137931s;opacity: 0}svg#freepik_stories-online-connection.animated #elmrnj1uc6ayl {animation: 1.0s 1 forwards cubic-bezier(.36,-0.01,.5,1.38) slideUp;animation-delay: 0.10344827586206896s;opacity: 0}svg#freepik_stories-online-connection.animated #elob3o241gt2 {animation: 1.0s 1 forwards cubic-bezier(.36,-0.01,.5,1.38) slideUp;animation-delay: 0.13793103448275862s;opacity: 0}svg#freepik_stories-online-connection.animated #eljjnlgj5zv4 {animation: 1.0s 1 forwards cubic-bezier(.36,-0.01,.5,1.38) slideUp;animation-delay: 0.1724137931034483s;opacity: 0}svg#freepik_stories-online-connection.animated #elilj5efby7b {animation: 1.0s 1 forwards cubic-bezier(.36,-0.01,.5,1.38) slideUp;animation-delay: 0.20689655172413793s;opacity: 0}svg#freepik_stories-online-connection.animated #eltrjmvpx8vz8 {animation: 1.0s 1 forwards cubic-bezier(.36,-0.01,.5,1.38) slideUp;animation-delay: 0.24137931034482757s;opacity: 0}svg#freepik_stories-online-connection.animated #ela0llpnfy2j6 {animation: 1.0s 1 forwards cubic-bezier(.36,-0.01,.5,1.38) slideUp;animation-delay: 0.27586206896551724s;opacity: 0}svg#freepik_stories-online-connection.animated #eldywfhxfo759 {animation: 1.0s 1 forwards cubic-bezier(.36,-0.01,.5,1.38) slideUp;animation-delay: 0.3103448275862069s;opacity: 0}svg#freepik_stories-online-connection.animated #elf5umjpyuyd {animation: 1.0s 1 forwards cubic-bezier(.36,-0.01,.5,1.38) slideUp;animation-delay: 0.3448275862068966s;opacity: 0}svg#freepik_stories-online-connection.animated #eldc0eihfc5ja {animation: 1.0s 1 forwards cubic-bezier(.36,-0.01,.5,1.38) slideUp;animation-delay: 0.3793103448275862s;opacity: 0}svg#freepik_stories-online-connection.animated #el5ktirbk24a3 {animation: 1.0s 1 forwards cubic-bezier(.36,-0.01,.5,1.38) slideUp;animation-delay: 0.41379310344827586s;opacity: 0}svg#freepik_stories-online-connection.animated #elilhc74ua3oj {animation: 1.0s 1 forwards cubic-bezier(.36,-0.01,.5,1.38) slideUp;animation-delay: 0.4482758620689655s;opacity: 0}svg#freepik_stories-online-connection.animated #elxksslibduso {animation: 1.0s 1 forwards cubic-bezier(.36,-0.01,.5,1.38) slideUp;animation-delay: 0.48275862068965514s;opacity: 0}svg#freepik_stories-online-connection.animated #elpsrjdi8sncf {animation: 1.0s 1 forwards cubic-bezier(.36,-0.01,.5,1.38) slideUp;animation-delay: 0.5172413793103449s;opacity: 0}svg#freepik_stories-online-connection.animated #eliiqw68qcmi9 {animation: 1.0s 1 forwards cubic-bezier(.36,-0.01,.5,1.38) slideUp;animation-delay: 0.5517241379310345s;opacity: 0}svg#freepik_stories-online-connection.animated #eljswkm7mlp8 {animation: 1.0s 1 forwards cubic-bezier(.36,-0.01,.5,1.38) slideUp;animation-delay: 0.5862068965517241s;opacity: 0}svg#freepik_stories-online-connection.animated #eldlm6z1x4uwk {animation: 1.0s 1 forwards cubic-bezier(.36,-0.01,.5,1.38) slideUp;animation-delay: 0.6206896551724138s;opacity: 0}svg#freepik_stories-online-connection.animated #elrnq4413b7s {animation: 1.0s 1 forwards cubic-bezier(.36,-0.01,.5,1.38) slideUp;animation-delay: 0.6551724137931034s;opacity: 0}svg#freepik_stories-online-connection.animated #el9me6b4eb51e {animation: 1.0s 1 forwards cubic-bezier(.36,-0.01,.5,1.38) slideUp;animation-delay: 0.6896551724137931s;opacity: 0}svg#freepik_stories-online-connection.animated #elf1erdl1xrbw {animation: 1.0s 1 forwards cubic-bezier(.36,-0.01,.5,1.38) slideUp;animation-delay: 0.7241379310344828s;opacity: 0}svg#freepik_stories-online-connection.animated #elb2pdo93v36v {animation: 1.0s 1 forwards cubic-bezier(.36,-0.01,.5,1.38) slideUp;animation-delay: 0.7586206896551724s;opacity: 0}svg#freepik_stories-online-connection.animated #elbuuu8i8z98b {animation: 1.0s 1 forwards cubic-bezier(.36,-0.01,.5,1.38) slideUp;animation-delay: 0.7931034482758621s;opacity: 0}svg#freepik_stories-online-connection.animated #elthyb1n66eb {animation: 1.0s 1 forwards cubic-bezier(.36,-0.01,.5,1.38) slideUp;animation-delay: 0.8275862068965517s;opacity: 0}svg#freepik_stories-online-connection.animated #elfekaswuvu5 {animation: 1.0s 1 forwards cubic-bezier(.36,-0.01,.5,1.38) slideUp;animation-delay: 0.8620689655172413s;opacity: 0}svg#freepik_stories-online-connection.animated #elj0zzburfgh {animation: 1.0s 1 forwards cubic-bezier(.36,-0.01,.5,1.38) slideUp;animation-delay: 0.896551724137931s;opacity: 0}svg#freepik_stories-online-connection.animated #eltkzzzghqsnf {animation: 1.0s 1 forwards cubic-bezier(.36,-0.01,.5,1.38) slideUp;animation-delay: 0.9310344827586207s;opacity: 0}svg#freepik_stories-online-connection.animated #el7ulqyu2x52r {animation: 1.0s 1 forwards cubic-bezier(.36,-0.01,.5,1.38) slideUp;animation-delay: 0.9655172413793103s;opacity: 0}svg#freepik_stories-online-connection.animated #freepik--character-2--inject-1 {animation: 1.0s 1 forwards cubic-bezier(.36,-0.01,.5,1.38) slideUp;animation-delay: 0.6s;opacity: 0}            @keyframes fadeIn {                0% {                    opacity: 0;                }                100% {                    opacity: 1;                }            }                 @keyframes spin {             from {                 transform: rotate(0);               }               to {                 transform: rotate(360deg);               }         }                 @keyframes slideUp {                0% {                    opacity: 0;                    transform: translateY(30px);                }                100% {                    opacity: 1;                    transform: inherit;                }            }                    @keyframes slideRight {                0% {                    opacity: 0;                    transform: translateX(30px);                }                100% {                    opacity: 1;                    transform: translateX(0);                }            }                    @keyframes slideDown {                0% {                    opacity: 0;                    transform: translateY(-30px);                }                100% {                    opacity: 1;                    transform: translateY(0);                }            }                    @keyframes slideLeft {                0% {                    opacity: 0;                    transform: translateX(-30px);                }                100% {                    opacity: 1;                    transform: translateX(0);                }            }        </style><g id="freepik--background-complete--inject-1" class="animable" style="transform-origin: 250px 228.23px;"><rect x="416.78" y="398.49" width="33.12" height="0.25" style="fill: rgb(235, 235, 235); transform-origin: 433.34px 398.615px;" id="el7qpwsl9l85" class="animable"></rect><rect x="322.53" y="401.21" width="8.69" height="0.25" style="fill: rgb(235, 235, 235); transform-origin: 326.875px 401.335px;" id="elm67r5p17rm9" class="animable"></rect><rect x="396.59" y="389.21" width="19.19" height="0.25" style="fill: rgb(235, 235, 235); transform-origin: 406.185px 389.335px;" id="elkbngx6ppdjf" class="animable"></rect><rect x="52.46" y="390.89" width="43.19" height="0.25" style="fill: rgb(235, 235, 235); transform-origin: 74.055px 391.015px;" id="elzwzbkr8appg" class="animable"></rect><rect x="104.56" y="390.89" width="6.33" height="0.25" style="fill: rgb(235, 235, 235); transform-origin: 107.725px 391.015px;" id="el6x09gdta8mr" class="animable"></rect><rect x="131.47" y="395.11" width="93.68" height="0.25" style="fill: rgb(235, 235, 235); transform-origin: 178.31px 395.235px;" id="elozdtr6prhlf" class="animable"></rect><path d="M237,337.8H43.91a5.71,5.71,0,0,1-5.7-5.71V60.66A5.71,5.71,0,0,1,43.91,55H237a5.71,5.71,0,0,1,5.71,5.71V332.09A5.71,5.71,0,0,1,237,337.8ZM43.91,55.2a5.46,5.46,0,0,0-5.45,5.46V332.09a5.46,5.46,0,0,0,5.45,5.46H237a5.47,5.47,0,0,0,5.46-5.46V60.66A5.47,5.47,0,0,0,237,55.2Z" style="fill: rgb(235, 235, 235); transform-origin: 140.46px 196.4px;" id="elk0gfiu0dfa" class="animable"></path><path d="M453.31,337.8H260.21a5.72,5.72,0,0,1-5.71-5.71V60.66A5.72,5.72,0,0,1,260.21,55h193.1A5.71,5.71,0,0,1,459,60.66V332.09A5.71,5.71,0,0,1,453.31,337.8ZM260.21,55.2a5.47,5.47,0,0,0-5.46,5.46V332.09a5.47,5.47,0,0,0,5.46,5.46h193.1a5.47,5.47,0,0,0,5.46-5.46V60.66a5.47,5.47,0,0,0-5.46-5.46Z" style="fill: rgb(235, 235, 235); transform-origin: 356.75px 196.4px;" id="elr5pv5oo5fk" class="animable"></path><rect y="382.4" width="500" height="0.25" style="fill: rgb(235, 235, 235); transform-origin: 250px 382.525px;" id="elcj7wksys92t" class="animable"></rect><path d="M393.76,188.65a10.16,10.16,0,0,0,9.53,10.14c.21,0,27.24,0,27.5,0a10.16,10.16,0,0,0,.13-20.24,14.53,14.53,0,0,0-29,.16A10.16,10.16,0,0,0,393.76,188.65Z" style="fill: rgb(235, 235, 235); transform-origin: 416.938px 181.91px;" id="elgkrfhmoxrom" class="animable"></path><path d="M112.54,317.15a10.15,10.15,0,0,0,9.53,10.13c.2,0,27.24,0,27.49,0A10.16,10.16,0,0,0,149.7,307a14.53,14.53,0,0,0-29,.16A10.16,10.16,0,0,0,112.54,317.15Z" style="fill: rgb(235, 235, 235); transform-origin: 135.848px 310.38px;" id="eleenjzn5uj2" class="animable"></path><path d="M57.13,105.51a16.34,16.34,0,0,0,15.33,16.3c.34,0,43.82,0,44.23,0a16.34,16.34,0,0,0,.22-32.56,23.37,23.37,0,0,0-46.68.26A16.33,16.33,0,0,0,57.13,105.51Z" style="fill: rgb(235, 235, 235); transform-origin: 94.4377px 94.4983px;" id="el5omjydz6lle" class="animable"></path><circle cx="419.56" cy="87.38" r="20.46" style="fill: rgb(230, 230, 230); transform-origin: 419.56px 87.38px;" id="eldf49egb9ptm" class="animable"></circle><path d="M419.61,108.3a20.93,20.93,0,0,1,0-41.85v.92a20,20,0,0,0,0,40Z" style="fill: rgb(255, 255, 255); transform-origin: 409.374px 87.375px;" id="elitp703o6dn" class="animable"></path><path d="M419.61,108.3v-.92a20,20,0,1,0,0-40v-.92a20.93,20.93,0,1,1,0,41.85Z" style="fill: rgb(255, 255, 255); transform-origin: 430.304px 87.385px;" id="el6t38mzhd05y" class="animable"></path><path d="M430.31,87.38h-.92c0-6.78-3.45-15.86-10-20.08l.49-.77C426.72,70.93,430.31,80.35,430.31,87.38Z" style="fill: rgb(255, 255, 255); transform-origin: 424.85px 76.955px;" id="eld3h5jvsam3w" class="animable"></path><path d="M419.86,107.61l-.49-.78c6.57-4.22,10-13.29,10-20.08h.92C430.31,93.79,426.72,103.21,419.86,107.61Z" style="fill: rgb(255, 255, 255); transform-origin: 424.83px 97.18px;" id="elvehsm4nmg7" class="animable"></path><path d="M409.84,87.37h-.92c0-7,3.59-16.45,10.45-20.85l.49.78C413.28,71.52,409.84,80.59,409.84,87.37Z" style="fill: rgb(255, 255, 255); transform-origin: 414.39px 76.945px;" id="el2y8hlsrqjn6" class="animable"></path><path d="M419.37,107.6c-6.86-4.4-10.45-13.82-10.45-20.85h.92c0,6.78,3.44,15.86,10,20.08Z" style="fill: rgb(255, 255, 255); transform-origin: 414.38px 97.175px;" id="elyyyi3fcrig" class="animable"></path><rect x="419.15" y="66.91" width="0.92" height="40.93" style="fill: rgb(255, 255, 255); transform-origin: 419.61px 87.375px;" id="eldfork6x1thv" class="animable"></rect><rect x="402.29" y="76.01" width="34.64" height="0.92" style="fill: rgb(255, 255, 255); transform-origin: 419.61px 76.47px;" id="elr162l74k0z" class="animable"></rect><rect x="399.16" y="87.26" width="40.91" height="0.92" style="fill: rgb(255, 255, 255); transform-origin: 419.615px 87.72px;" id="el8vd3y6481ap" class="animable"></rect><rect x="402.75" y="98.5" width="33.73" height="0.92" style="fill: rgb(255, 255, 255); transform-origin: 419.615px 98.96px;" id="elm25cph9x3f" class="animable"></rect><path d="M297.18,87.56v23a2.17,2.17,0,0,0,2.17,2.17h34.07l8.4,6.5a1.61,1.61,0,0,0,2.57-1.29v-5.21h1.31a2.17,2.17,0,0,0,2.17-2.17v-23a2.16,2.16,0,0,0-2.17-2.16H299.34A2.16,2.16,0,0,0,297.18,87.56Z" style="fill: rgb(230, 230, 230); transform-origin: 322.525px 102.474px;" id="el1rovu3tzhbd" class="animable"></path><path d="M341.52,119.57l-8.27-6.39h-33.9a2.66,2.66,0,0,1-2.65-2.66v-23a2.64,2.64,0,0,1,2.64-2.64h46.37a2.65,2.65,0,0,1,2.65,2.64v23a2.67,2.67,0,0,1-2.66,2.66h-.82v4.72a2.09,2.09,0,0,1-3.36,1.67Zm4.18-33.68H299.34a1.67,1.67,0,0,0-1.67,1.67v23a1.68,1.68,0,0,0,1.68,1.68h34.23l8.53,6.6a1.11,1.11,0,0,0,.67.23,1.14,1.14,0,0,0,1.13-1.13v-5.7h1.79a1.69,1.69,0,0,0,1.69-1.68v-23a1.69,1.69,0,0,0-1.68-1.67Z" style="fill: rgb(230, 230, 230); transform-origin: 322.53px 102.44px;" id="elz4j3oktzemr" class="animable"></path><path d="M173.67,125.77V108.68a1.62,1.62,0,0,1,1.62-1.62h25.36l6.25-4.83a1.19,1.19,0,0,1,1.91,1v3.87h1a1.63,1.63,0,0,1,1.62,1.62v17.1a1.62,1.62,0,0,1-1.62,1.6H175.28A1.61,1.61,0,0,1,173.67,125.77Z" style="fill: rgb(230, 230, 230); transform-origin: 192.55px 114.703px;" id="elg39t8t88qvn" class="animable"></path><path d="M207.62,101.63a1.56,1.56,0,0,1,1.56,1.56v3.51h.61a2,2,0,0,1,2,2v17.1a2,2,0,0,1-2,2H175.28a2,2,0,0,1-2-2V108.68a2,2,0,0,1,2-2h25.23l6.16-4.76A1.58,1.58,0,0,1,207.62,101.63ZM209.8,127a1.25,1.25,0,0,0,1.24-1.25V108.68a1.25,1.25,0,0,0-1.25-1.25h-1.34v-4.24a.83.83,0,0,0-.83-.84.82.82,0,0,0-.5.17l-6.35,4.91H175.29a1.25,1.25,0,0,0-1.26,1.25v17.09a1.25,1.25,0,0,0,1.25,1.25H209.8Z" style="fill: rgb(230, 230, 230); transform-origin: 192.535px 114.715px;" id="elu2sff1t7k4t" class="animable"></path><path d="M421.83,213v23a2.17,2.17,0,0,1-2.17,2.17H385.59l-8.4,6.5a1.56,1.56,0,0,1-1,.32,1.61,1.61,0,0,1-1.61-1.61v-5.21h-1.31a2.17,2.17,0,0,1-2.17-2.17V213a2.16,2.16,0,0,1,2.17-2.15h46.36A2.16,2.16,0,0,1,421.83,213Z" style="fill: rgb(230, 230, 230); transform-origin: 396.465px 227.92px;" id="elnxb40cy6t8" class="animable"></path><path d="M376.23,245.4a2.1,2.1,0,0,1-2.09-2.1v-4.72h-.83a2.67,2.67,0,0,1-2.66-2.66V213a2.66,2.66,0,0,1,2.65-2.64h46.37a2.65,2.65,0,0,1,2.65,2.64v23a2.66,2.66,0,0,1-2.66,2.66h-33.9L377.49,245A2.06,2.06,0,0,1,376.23,245.4Zm-2.93-34.11a1.67,1.67,0,0,0-1.67,1.67v23a1.69,1.69,0,0,0,1.68,1.69h1.8v5.69a1.13,1.13,0,0,0,1.12,1.13,1.09,1.09,0,0,0,.67-.23l8.53-6.59h34.23a1.69,1.69,0,0,0,1.69-1.69V213a1.68,1.68,0,0,0-1.68-1.67H373.3Z" style="fill: rgb(230, 230, 230); transform-origin: 396.485px 227.88px;" id="el7jnvct35ijf" class="animable"></path><path d="M63.83,227.18v-25a2.36,2.36,0,0,1,2.36-2.35h37l9.13-7.06a1.72,1.72,0,0,1,1-.35,1.74,1.74,0,0,1,1.75,1.74v5.67h1.43a2.36,2.36,0,0,1,2.36,2.35v25a2.37,2.37,0,0,1-2.36,2.34H66.18A2.35,2.35,0,0,1,63.83,227.18Z" style="fill: rgb(230, 230, 230); transform-origin: 91.345px 210.97px;" id="elvzmq9psdh7p" class="animable"></path><path d="M113.38,191.94a2.28,2.28,0,0,1,2.28,2.27v5.14h.9a2.88,2.88,0,0,1,2.88,2.88v25a2.88,2.88,0,0,1-2.87,2.87H66.18a2.88,2.88,0,0,1-2.87-2.88v-25a2.88,2.88,0,0,1,2.88-2.88H103l9-6.95A2.25,2.25,0,0,1,113.38,191.94ZM116.57,229a1.82,1.82,0,0,0,1.82-1.81v-25a1.83,1.83,0,0,0-1.83-1.83h-2v-6.19a1.23,1.23,0,0,0-1.23-1.22,1.19,1.19,0,0,0-.72.25l-9.27,7.16H66.19a1.83,1.83,0,0,0-1.83,1.83v25A1.83,1.83,0,0,0,66.18,229h50.39Z" style="fill: rgb(230, 230, 230); transform-origin: 91.375px 211.02px;" id="elorsynmqtvu" class="animable"></path></g><g id="freepik--Shadow--inject-1" class="animable" style="transform-origin: 250px 415.69px;"><ellipse id="freepik--path--inject-1" cx="250" cy="415.69" rx="193.89" ry="11.32" style="fill: rgb(245, 245, 245); transform-origin: 250px 415.69px;" class="animable"></ellipse></g><g id="freepik--Earth--inject-1" class="animable" style="transform-origin: 249.07px 233.04px;"><g id="elg3k7dxm34t7"><circle cx="249.07" cy="233.04" r="103.23" style="fill: rgb(64, 123, 255); transform-origin: 249.07px 233.04px; transform: rotate(-45deg);" class="animable"></circle></g><g id="eldwftfjp72d"><circle cx="249.07" cy="233.04" r="103.23" style="fill: rgb(255, 255, 255); opacity: 0.2; transform-origin: 249.07px 233.04px; transform: rotate(-45deg);" class="animable"></circle></g><g id="elx0efpqj6xsc"><path d="M262,137.24l13,7.81v12.43s-9.87-1.35-13-6.73c0,0,2.69-1.14-4.94-5.7S251.27,135,262,137.24Z" style="fill: rgb(255, 255, 255); opacity: 0.5; transform-origin: 263.705px 147.101px;" class="animable"></path></g><g id="elbjn2xb0fzd8"><path d="M254.86,236l-7.48,3.6s-2.25,4.33-1.8,4.18-1.64,9-1.2,9.13-4.33,4-4.33,4l-2.25,5.54v6.43l10.81,14.66,7.89,4.49-6.88,37.7,2.84,1,35.91-26.33,2.39-6.44,10.63-4.18,5.68-14.82,6.44-7.48s.59-7.48,0-7.33-3.45,1.2-3.45,1.2l-5.38-4s-11.37-2.1-12-1.5-2.39-7-2.39-7l-10.48-2.91-10.92-7.18L261,240.36Z" style="fill: rgb(255, 255, 255); opacity: 0.5; transform-origin: 275.786px 281.365px;" class="animable"></path></g><g id="el7vwti2xl8wa"><path d="M234.49,217.51h5.78l8.23,4.31,15.36,3.85.72,1.23-15.22-.25,2.82-1.76-2.26-1.43-6.13-.15.74-.75-6.34-3.25s-4-.94-4.13-.49l-1.64.2Z" style="fill: rgb(255, 255, 255); opacity: 0.5; transform-origin: 248.5px 222.205px;" class="animable"></path></g><g id="el8xnr8v4vm2l"><polygon points="246.38 226.9 244.98 225.53 242.68 225.65 243.64 226.9 246.38 226.9" style="fill: rgb(255, 255, 255); opacity: 0.5; transform-origin: 244.53px 226.215px;" class="animable"></polygon></g><g id="elyqbem1ewhke"><path d="M282.69,137.24h-1.8l12.79,7.67,2,2.19,12.57,7.24,2.47,3.14,2,7,6.73,5.39-3.14,2.24,7.18,9H326l.9-3.59-5.39-11.22,7.46,4.18S313,145.51,282.69,137.24Z" style="fill: rgb(255, 255, 255); opacity: 0.5; transform-origin: 304.93px 159.175px;" class="animable"></path></g><g id="elpaohgnrkaef"><path d="M335.31,178.57h-1.94l-3.24-4.26-3.46,9.42s2.14,11,2.3,11.67-1,2.25-1,2.25l1,12.12,2.49,4.26,1.91,10.32L341.83,236l6.83-9.8,1.13,2.4S350.92,203.71,335.31,178.57Z" style="fill: rgb(255, 255, 255); opacity: 0.5; transform-origin: 338.239px 205.155px;" class="animable"></path></g><g id="elw8o6b84rry"><polygon points="284.93 147.1 282.69 147.1 282.69 149.85 284.93 151.19 286.95 151.19 286.95 149.15 284.93 147.1" style="fill: rgb(255, 255, 255); opacity: 0.5; transform-origin: 284.82px 149.145px;" class="animable"></polygon></g><g id="elno3oxwh467f"><polygon points="298.62 152.54 301.99 156.13 302.88 159.14 306.25 162.41 307.6 160.4 310.06 162.41 310.06 160.17 308.27 157.48 298.62 152.54" style="fill: rgb(255, 255, 255); opacity: 0.5; transform-origin: 304.34px 157.475px;" class="animable"></polygon></g><g id="elj3jcr292mks"><path d="M275.66,175.94s-15.71,5.83-21.55,9.42-4.89,11.26-4.89,11.26L239.75,202,242,212.29l-2.24,1.35-3.59-8.53s-12.57-1.79-17.82-.9-6.42,11.22-6.42,11.22l3.14,8.53,7.18.45.9-4.93,7.63.44-4.94,9.43,9,1.35.88,6.62,9,6.84s1.8,2.24,0,3.14-44.43-24.68-48.47-31-9.2-23.56-5.16-35.68c3.28-9.84,9.37-19,11.31-24.9h0l.06-.2h0a3.4,3.4,0,0,0,.15-.49,3.64,3.64,0,0,0-2.77-4.24c-1.57-.45-4.49,1.35-4.49,1.35h-5.73l6-3.4,2.46-2.6,1.58-1.41,5.83-2.47-.22-1.79a32.46,32.46,0,0,1,11-4.16l-4.26,3.26h4.49l.9,5.08h9s-2.24-.59,3.15-3.56,22.89-4.25,22.89-4.25l-5.39,7.81,11.67,6.59-1.35,4.94-8-2.25v-2.69l-5-3-.45,5.26-1.8,2.25-2.24-1.8-6.33,6.29,11.26,11,1.8-14.11,16.16,3.59Z" style="fill: rgb(255, 255, 255); opacity: 0.5; transform-origin: 232.64px 191.817px;" class="animable"></path></g><g id="elzgx9zdd4pu"><path d="M148.82,232v9.3l2.85,16.06,3.92,7.76,2.26-6s-3-4.73-3-6.48,1.07-9.08,1.07-9.08l-2.62-2.29-2.92-6.48Z" style="fill: rgb(255, 255, 255); opacity: 0.5; transform-origin: 153.335px 248.56px;" class="animable"></path></g><g id="elsl21cameihm"><path d="M333.67,250.26c.26-1-1.53-2.39-1.53-2.39l-2.29,1.67-4,6.15,3.37,3.12a3.31,3.31,0,0,1,2.85-1.43C332,256.31,333.67,250.26,333.67,250.26Z" style="fill: rgb(255, 255, 255); opacity: 0.5; transform-origin: 329.773px 253.34px;" class="animable"></path></g></g><g id="freepik--character-6--inject-1" class="animable" style="transform-origin: 384.094px 287.159px;"><path d="M364.17,276a1,1,0,0,1-.54-.16l-32.95-21.23a1,1,0,1,1,1.08-1.68l32.95,21.23a1,1,0,0,1-.54,1.84Z" style="fill: rgb(64, 123, 255); transform-origin: 347.671px 264.371px;" id="elwvyillr2gt" class="animable"></path><path d="M435.56,300.05a37.3,37.3,0,0,1-21.5,21.55A36.71,36.71,0,0,1,403.77,324c-.36,0-.73.07-1.09.08h-.15a37.35,37.35,0,0,1-38.1-46.41c.23-.95.51-1.88.83-2.82h0c.16-.46.32-.92.5-1.39a37.35,37.35,0,1,1,69.8,26.62Z" style="fill: rgb(64, 123, 255); transform-origin: 400.657px 286.773px;" id="elkk3cr46qbsn" class="animable"></path><g id="els8oy2hegqwo"><path d="M435.56,300.05a37.3,37.3,0,0,1-21.5,21.55A36.71,36.71,0,0,1,403.77,324c-.36,0-.73.07-1.09.08h-.15a37.35,37.35,0,0,1-38.1-46.41c.23-.95.51-1.88.83-2.82h0c.16-.46.32-.92.5-1.39a37.35,37.35,0,1,1,69.8,26.62Z" style="fill: rgb(255, 255, 255); opacity: 0.2; transform-origin: 400.657px 286.773px;" class="animable"></path></g><path d="M409.35,291l-2.65,5.62a49.47,49.47,0,0,0-4.88,1.47h0a2.74,2.74,0,0,0-.38.18l-1.09,1.42-.32.4-.68.89s-1.39-.62-2.74-1.25l-1.29-.59a5.4,5.4,0,0,1-.49-.23h-.05l-.38-.18-.17-.07h0l-.34-.16-.09,0-.43-.21a18.62,18.62,0,0,1-1.81-.94,8.81,8.81,0,0,1-1.91-1.3,1.8,1.8,0,0,1-.27-.39,2.07,2.07,0,0,1-.25-.67,9.08,9.08,0,0,1,.16-2.5c.24-1.37.61-2.67.61-2.67l3.22-4.23a2.5,2.5,0,0,0,1.24.62s.13-.28.16,0a2.61,2.61,0,0,0,1.42-.21,2.19,2.19,0,0,0,.74-.66h0l.09-.12c.16-.22.33-.49.5-.76l.3-.53.11-.22a3.73,3.73,0,0,0,.2-.4c.14-.27.25-.52.36-.75s.11-.22.15-.33c.2-.46.33-.79.33-.79l7.5-1.18h0l.2,0h.06s0,.12,0,.33h0c0,.2-.07.48-.12.82,0,.15,0,.31-.07.48a1,1,0,0,0,0,.25l0,.14h0c0,.42-.1.88-.16,1.35h0a.43.43,0,0,0,0,.05c-.06.55-.1,1.14-.12,1.72h0a8.39,8.39,0,0,0,.49,4.1,2.21,2.21,0,0,0,1.12.81l.17.07A11.79,11.79,0,0,1,409.35,291Z" style="fill: rgb(221, 140, 106); transform-origin: 399.227px 290.62px;" id="el73p4ucc9t73" class="animable"></path><g id="elis1ohvhk1md"><path d="M398.7,281.43a18.74,18.74,0,0,1-2.05,3.89c5.62,1.76,8.66-2.9,9.75-5.11Z" style="opacity: 0.1; transform-origin: 401.525px 282.959px;" class="animable"></path></g><path d="M411.45,271.78c-1.87,6.09-2.54,8.7-6.43,11.1-5.85,3.63-12.91,0-12.89-6.53,0-5.87,3.11-14.86,9.74-15.81a8.67,8.67,0,0,1,9.9,7.26A8.53,8.53,0,0,1,411.45,271.78Z" style="fill: rgb(221, 140, 106); transform-origin: 402.002px 272.378px;" id="elw241ny4jrqf" class="animable"></path><g id="el4wmx1qn8a6"><path d="M403.28,271.28a3.22,3.22,0,0,1,3,5.08,3.11,3.11,0,0,1-2.89,1.29,3.22,3.22,0,0,1-1.78-5.63A2.75,2.75,0,0,1,403.28,271.28Z" style="fill: rgb(193, 59, 55); opacity: 0.2; transform-origin: 403.697px 274.463px;" class="animable"></path></g><g id="elhrnj5dk7xg"><path d="M393.44,269.82a2.13,2.13,0,0,0-.35-.14,27.24,27.24,0,0,0-1,6.27,3.18,3.18,0,0,0,1.34-6.17Z" style="fill: rgb(193, 59, 55); opacity: 0.2; transform-origin: 393.828px 272.822px;" class="animable"></path></g><path d="M402,271.31c-.14.49-.52.82-.83.73s-.48-.56-.35-1.05.51-.82.83-.74S402.06,270.83,402,271.31Z" style="fill: rgb(38, 50, 56); transform-origin: 401.397px 271.146px;" id="elahcl77c4njf" class="animable"></path><path d="M396.38,269.8c-.14.5-.51.82-.83.73s-.47-.56-.34-1,.51-.82.83-.73S396.51,269.3,396.38,269.8Z" style="fill: rgb(38, 50, 56); transform-origin: 395.795px 269.666px;" id="el1a6xkhscskw" class="animable"></path><path d="M396.17,268.81l-1.09-.66S395.43,269.24,396.17,268.81Z" style="fill: rgb(38, 50, 56); transform-origin: 395.625px 268.53px;" id="elz8o8lm2c61d" class="animable"></path><path d="M397,270.85a14.09,14.09,0,0,1-2.55,2.74,2.28,2.28,0,0,0,1.69.76Z" style="fill: rgb(193, 59, 55); transform-origin: 395.725px 272.6px;" id="elqowi1fyc3ta" class="animable"></path><path d="M397.84,277.17a3.68,3.68,0,0,1-.75-.13.15.15,0,0,1-.12-.17h0a.15.15,0,0,1,.18-.1,4,4,0,0,0,3.58-.76.16.16,0,0,1,.22,0,.15.15,0,0,1,0,.21A4.23,4.23,0,0,1,397.84,277.17Z" style="fill: rgb(38, 50, 56); transform-origin: 398.981px 276.578px;" id="el6231v5edly" class="animable"></path><path d="M403.42,268.82a.31.31,0,0,1-.32-.17,3.56,3.56,0,0,0-2.4-1.52.3.3,0,0,1-.26-.34.29.29,0,0,1,.33-.25h0a4.09,4.09,0,0,1,2.86,1.85.3.3,0,0,1-.14.4h0Z" style="fill: rgb(38, 50, 56); transform-origin: 402.048px 267.68px;" id="elgi6eay7dt1" class="animable"></path><path d="M394.45,266.53a.31.31,0,0,1-.25-.18.3.3,0,0,1,.14-.4,3,3,0,0,1,2.77,0,.28.28,0,0,1,.11.39v0a.29.29,0,0,1-.41.1h0a2.4,2.4,0,0,0-2.17,0A.29.29,0,0,1,394.45,266.53Z" style="fill: rgb(38, 50, 56); transform-origin: 395.715px 266.071px;" id="elj1x904tsun" class="animable"></path><path d="M401.74,270.37l-1.09-.67S401,270.76,401.74,270.37Z" style="fill: rgb(38, 50, 56); transform-origin: 401.195px 270.078px;" id="el8ph2rym5up" class="animable"></path><path d="M423,280.26c2.72,7.48-5.86,4-5.86,4-1.29,3.1-2.79,3.47-4,3a5.9,5.9,0,0,1-2.37-2.07c-2.71,3.67-4.37,2.19-4.89.18h0a5.34,5.34,0,0,1-.14-1.81s0-.08,0-.12a2.43,2.43,0,0,1,.42-1.19h0a2.16,2.16,0,0,0,.24-.31s0,0,0,0a9,9,0,0,0,.67-1h0a9.58,9.58,0,0,0,.93-2.23c.05-.2.11-.39.15-.59s.12-.54.17-.81c.22-1.16.34-2.4.49-3.76.15-1.19.3-2.47.57-3.88,1.07-5.66-6.9-4.34-9.26-5.63-.74-.39-1.38-.77-1.95-1.12h0l-.51-.34a.18.18,0,0,1-.07-.05,14.19,14.19,0,0,1-1.48-1.11c-.26-.23-.48-.44-.67-.64h0c-3.28-3.55,2.94-4.52,2.94-4.52-.42-6.77,5.21-4.94,5.21-4.94a10.48,10.48,0,0,1,.76-1.66,37.58,37.58,0,0,1,20.48,8.69,12.21,12.21,0,0,1-.62,2.8c9.06,4.4,1.65,10.81,1.65,10.81C431.12,277.09,423,280.26,423,280.26Z" style="fill: rgb(38, 50, 56); transform-origin: 411.599px 268.549px;" id="el9tos71tysru" class="animable"></path><path d="M411.11,276.61a4.56,4.56,0,0,1-2.86,2c-1.57.32-2.25-1.12-1.72-2.55s1.89-3,3.42-2.7a2,2,0,0,1,1.16,3.27Z" style="fill: rgb(221, 140, 106); transform-origin: 408.972px 275.989px;" id="elgqb50vl03d" class="animable"></path><path d="M409.41,276.31c0,.63-.12,1.4-.71,1.63s-2,.08-2.43.48a1,1,0,0,0,0,1.29,5.48,5.48,0,0,1,.79,1.15c.15.45-.09,1.07-.55,1.06-.31,0-.56-.28-.87-.31-.5-.05-.81.63-.62,1.1a2.27,2.27,0,0,0,1.13,1,4.16,4.16,0,0,1-2.17-1.32.9.9,0,0,1-.27-.62.71.71,0,0,1,.8-.51,9.41,9.41,0,0,1,1,.24.82.82,0,0,0,.91-.34c.21-.43-.22-.88-.55-1.23-.47-.51-.78-1.35-.32-1.87s1.06-.61,1.92-.59a1.28,1.28,0,0,0,1.38-1.25c.06-1.08-.14-1.07,0-2.79C409.73,273.71,409.37,275.55,409.41,276.31Z" style="fill: rgb(38, 50, 56); transform-origin: 406.58px 278.57px;" id="elk4cfxyww2he" class="animable"></path><path d="M388.48,269.4a1,1,0,0,0,.25.77,5,5,0,0,0,2.46,1.83,2.78,2.78,0,0,1-1.24-1.3c-.19-.59-.38-1,.23-.88.36.07,1.26.05,1.63.09.56.06.92-.66.78-1.21a6.33,6.33,0,0,0-.82-1.48c-.26-.5-.33-1.22.12-1.55s2.29-.13,3-.32,1-1.12,1-1.88c0-.53.24-1.49.22-2.29l.05,0a.45.45,0,0,1,.55.11,2.14,2.14,0,0,1,.34.49c.19.35,1,1.38,1.39,1a5,5,0,0,0-.34-.7,4.47,4.47,0,0,0-1.55-1.95,1.66,1.66,0,0,0-1,0s0,.05-.06.07c0,.18,0,.36-.07.49-.16,1.33,0,1.49-.16,2.6a1.56,1.56,0,0,1-1.79,1.37c-1-.13-1.63-.22-2.39.5s-.32,1.62.19,2.28c.36.46.83,1,.53,1.55a1,1,0,0,1-1.13.3c-.41-.11-.78-.34-1.2-.41S388.56,269,388.48,269.4Z" style="fill: rgb(38, 50, 56); transform-origin: 393.457px 266.026px;" id="elpkbubwa3r5k" class="animable"></path><path d="M362.34,281.73A16.92,16.92,0,0,1,364,278.5c1.94-3.43,1.51-5.45,0-9.11-1.2-.41-4.55,1.75-4.55,1.75a17.55,17.55,0,0,0-1.12,2.2c-1.64,4,.18,8.51.18,8.51-1.07,6.5-2,20.06-1.56,21.44,1,3.28,6.56,5.08,6.28.51S361.72,283.54,362.34,281.73Z" style="fill: rgb(221, 140, 106); transform-origin: 361.069px 287.944px;" id="eljxbi2i6lxvg" class="animable"></path><path d="M385.31,294.7a38.73,38.73,0,0,1-10.55,13.65c-2.19,1.81-4.73,3.42-7.56,3.6a9,9,0,0,1-8.53-4c-2.18-3-3-5.29-3.11-11.22a29.69,29.69,0,0,1,.25-5.18c.83-2.22,2.29-2.24,3.91-2.14,1.28.08,1.4-.21,2.62.16,2.47.76,3.25,3.34,3.58,6.1.78,6.54,5.93,0,7.42-2,3.2-4.17,7.42-9.15,13.4-10,.88-.13.58,0,1.31.55a3,3,0,0,1,1,2.53,10.77,10.77,0,0,1-2.39,6.81Z" style="fill: rgb(64, 123, 255); transform-origin: 372.3px 297.815px;" id="eltj4te99kn9" class="animable"></path><g id="eltviimabrn0o"><path d="M385.31,294.7a38.73,38.73,0,0,1-10.55,13.65c-2.19,1.81-4.73,3.42-7.56,3.6a9,9,0,0,1-8.53-4c-2.18-3-3-5.29-3.11-11.22a29.69,29.69,0,0,1,.25-5.18c.83-2.22,2.29-2.24,3.91-2.14,1.28.08,1.4-.21,2.62.16,2.47.76,3.25,3.34,3.58,6.1.78,6.54,5.93,0,7.42-2,3.2-4.17,7.42-9.15,13.4-10,.88-.13.58,0,1.31.55a3,3,0,0,1,1,2.53,10.77,10.77,0,0,1-2.39,6.81Z" style="fill: rgb(255, 255, 255); opacity: 0.4; transform-origin: 372.3px 297.815px;" class="animable"></path></g><g id="el69ewq78oytc"><path d="M382.38,290.24l-3.58,5a21.83,21.83,0,0,0-4,13.07h0s5.2-4,6.72-7.12S382.38,290.24,382.38,290.24Z" style="opacity: 0.1; transform-origin: 378.659px 299.275px;" class="animable"></path></g><path d="M418.06,297.79l-4.35,9.66-.63.84-6.8,9.08h0l-.61.82a19.36,19.36,0,0,0-2.62,4.75q-.18.48-.33,1l-.06.14c-.08.27-.15.55-.22.82q.06-.37.09-.81a37.45,37.45,0,0,1-26.25-9c.33-2.45.79-6.08,1.17-9,0-.06,0-.12,0-.18.27-2.11.5-3.81.61-4.37a42.31,42.31,0,0,1,4.3-11.28,37.34,37.34,0,0,1,4-6.3h0l.15-.12.09-.09h0l.09,0,.52.05.22,0,.24,0c.51.05,1,.11,1.66.22l1.13.21.26,0,2.33.5c.35.06.74.15,1.14.24l.1,1.16.27,2.91a4.67,4.67,0,0,0,.08.52c0,1.06.06,2.19.07,3.24,0,.29,0,.57,0,.85,0,.73,0,1.38,0,1.94,0,.14,0,.28,0,.41s0,.22,0,.31v.42h0v.41l.12-.06,0,0,0,0h0l.08,0h0l.08-.06h0l.35-.19.24-.13h0l.26-.14.3-.17.09,0h0l.36-.2.38-.2,1-.56.43-.23.44-.24,2.36-1.27.48-.26.46-.25.52-.27,2-1.05c.26-.15.52-.29.78-.41h0l.43-.21.41-.22,1.1-.57,1.08-.53a32.74,32.74,0,0,1,8.58,5.94l.12.11c.06.07.13.13.19.21l.16.16a1,1,0,0,1,.15.17v0a1.28,1.28,0,0,1,.15.31h0s0,.07,0,.11v0h0v0a1,1,0,0,0,0,.16.38.38,0,0,1,0,.15v.06h0a1.41,1.41,0,0,1,0,.21A1.29,1.29,0,0,1,418.06,297.79Z" style="fill: rgb(64, 123, 255); transform-origin: 397.17px 304.325px;" id="ele2we9t5x51m" class="animable"></path><g id="el1uvc78dbra5"><g style="opacity: 0.4; transform-origin: 397.19px 304.325px;" class="animable"><path d="M418.06,297.79l-4.35,9.66-.63.84-6.8,9.08h0l-.61.82a19.36,19.36,0,0,0-2.62,4.75q-.18.48-.33,1a.37.37,0,0,0,0,.14c-.09.27-.17.54-.24.82q.06-.37.09-.81a37.45,37.45,0,0,1-26.25-9c.33-2.45.79-6.08,1.17-9,0-.06,0-.12,0-.18.27-2.11.5-3.81.61-4.37a42.31,42.31,0,0,1,4.3-11.28,37.34,37.34,0,0,1,4-6.3h0l.15-.12.09-.09h0l.09,0,.52.05.22,0,.24,0c.51.05,1,.11,1.66.22l1.13.21.26,0,2.33.5c.35.06.74.15,1.14.24l.1,1.16.27,2.91a4.67,4.67,0,0,0,.08.52c0,1.06.06,2.19.07,3.24,0,.29,0,.57,0,.85,0,.73,0,1.38,0,1.94,0,.14,0,.28,0,.41s0,.22,0,.31v.85l.12-.06,0,0,0,0h0l.08,0h0l.07,0,.35-.19.24-.13h0l.26-.14.3-.17.09,0h0l.36-.2.38-.2,1-.56.43-.23.44-.24,2.36-1.27.48-.26.46-.25.52-.27,2-1.05c.26-.15.52-.29.78-.41h0l.43-.21.41-.22,1.1-.57,1.08-.53a32.74,32.74,0,0,1,8.58,5.94l.12.11c.06.07.13.13.19.21l.16.16a1,1,0,0,1,.15.17v0a1.28,1.28,0,0,1,.15.31h0s0,.07,0,.11v0h0v0a1,1,0,0,0,0,.16.38.38,0,0,1,0,.15v.06h0a1.41,1.41,0,0,1,0,.21A1.29,1.29,0,0,1,418.06,297.79Z" style="fill: rgb(255, 255, 255); transform-origin: 397.19px 304.325px;" id="el960zubfusml" class="animable"></path></g></g><g id="ellzoil2p5pae"><g style="opacity: 0.9; transform-origin: 402.214px 291.345px;" class="animable"><path d="M394.79,297.05l-.06,0s-.55-.45-1.36-1.14c-1.11-.94-2.71-2.3-4.1-3.46L388,291.35l-1.51-1.28c-.36-.32.07-5.34.16-6.35v0a1.06,1.06,0,0,0,0-.17l2.7.47,1.13.2.26.05,3.45.59,0,.15.1,1.16.27,2.9c0,.18.05.36.08.53,0,1.06.06,2.19.08,3.24,0,.29,0,.57,0,.84,0,.73,0,1.39,0,1.95,0,.26,0,.51,0,.72v.72Z" style="fill: rgb(255, 255, 255); transform-origin: 390.569px 290.31px;" id="elus2vbflui7" class="animable"></path><path d="M418.08,296.74h0c-3.2.3-9.18,2.4-9.18,2.4L395,297.08c1.33-.74,9.08-4.94,12.64-6.73l1.08-.54a32.5,32.5,0,0,1,8.58,5.94,3.2,3.2,0,0,1,.31.32,2.35,2.35,0,0,1,.3.33v0A.92.92,0,0,1,418.08,296.74Z" style="fill: rgb(255, 255, 255); transform-origin: 406.54px 294.475px;" id="ela691rs0q6lw" class="animable"></path></g></g><g id="eledb65p3c5lp"><path d="M413.08,308.29l-6.8,9.08h0l-.61.82a19.36,19.36,0,0,0-2.62,4.75q-.18.48-.33,1a.37.37,0,0,0,0,.14c-.09.27-.17.54-.24.82q.06-.37.09-.81c.05-.69.05-1.42.14-1.88a32.81,32.81,0,0,1,3.72-10.05c.67-1.19,3-5.33,5.26-7.27,1.06-.92,2.1-1.35,2.94-.76A15.61,15.61,0,0,1,413.08,308.29Z" style="opacity: 0.1; transform-origin: 408.555px 314.38px;" class="animable"></path></g><path d="M417.61,314.43a53.7,53.7,0,0,0-3.55,7.17A36.71,36.71,0,0,1,403.77,324c.65-1.78,1.52-4.09,2.51-6.6,1.63-4.06,3.57-8.68,5.37-12.51s3.4-6.75,4.49-7.81c.34-.33.62-.47.84-.4h0a1.58,1.58,0,0,1,.36.14.07.07,0,0,1,.06,0,4.2,4.2,0,0,1,.75.46,7.22,7.22,0,0,1,1.58,1.67,10.52,10.52,0,0,1,1.07,4.85A28,28,0,0,1,417.61,314.43Z" style="fill: rgb(64, 123, 255); transform-origin: 412.286px 310.331px;" id="el457sycrtyo5" class="animable"></path><g id="elawow91jfeqd"><g style="opacity: 0.4; transform-origin: 412.286px 310.331px;" class="animable"><path d="M417.61,314.43a53.7,53.7,0,0,0-3.55,7.17A36.71,36.71,0,0,1,403.77,324c.65-1.78,1.52-4.09,2.51-6.6,1.63-4.06,3.57-8.68,5.37-12.51s3.4-6.75,4.49-7.81c.34-.33.62-.47.84-.4h0a1.58,1.58,0,0,1,.36.14.07.07,0,0,1,.06,0,3.84,3.84,0,0,1,.75.4,4.71,4.71,0,0,1,1.58,1.73,10.52,10.52,0,0,1,1.07,4.85A28,28,0,0,1,417.61,314.43Z" style="fill: rgb(255, 255, 255); transform-origin: 412.286px 310.331px;" id="elvxsf0qe0p58" class="animable"></path></g></g><g id="elflau0pmco9u"><g style="opacity: 0.9; transform-origin: 402.214px 291.345px;" class="animable"><path d="M394.79,297.05l-.06,0s-.55-.45-1.36-1.14c-1.11-.94-2.71-2.3-4.1-3.46L388,291.35l-1.51-1.28c-.36-.32.07-5.34.16-6.35v0a1.06,1.06,0,0,0,0-.17l2.7.47,1.13.2.26.05,3.45.59,0,.15.1,1.16.27,2.9c0,.18.05.36.08.53,0,1.06.06,2.19.08,3.24,0,.29,0,.57,0,.84,0,.73,0,1.39,0,1.95,0,.26,0,.51,0,.72v.72Z" style="fill: rgb(64, 123, 255); transform-origin: 390.569px 290.31px;" id="elisy8bp3ahg" class="animable"></path><path d="M418.08,296.74h0c-3.2.3-9.18,2.4-9.18,2.4L395,297.08c1.33-.74,9.08-4.94,12.64-6.73l1.08-.54a32.5,32.5,0,0,1,8.58,5.94,3.2,3.2,0,0,1,.31.32,2.35,2.35,0,0,1,.3.33v0A.92.92,0,0,1,418.08,296.74Z" style="fill: rgb(64, 123, 255); transform-origin: 406.54px 294.475px;" id="elgcgsi3cfj37" class="animable"></path></g></g><path d="M394.69,289.58l.1,7.47.21,0,7.9-4.28S396.74,293.94,394.69,289.58Z" style="fill: rgb(38, 50, 56); transform-origin: 398.795px 293.315px;" id="elf4cx0wim53o" class="animable"></path><path d="M394.71,296.55l-.08-.05-7.39-6.64a.25.25,0,0,1-.08-.18l.1-5.93a.23.23,0,0,1,.23-.23.23.23,0,0,1,.23.24l-.09,5.82,7.31,6.58a.23.23,0,0,1,0,.33A.24.24,0,0,1,394.71,296.55Z" style="fill: rgb(38, 50, 56); transform-origin: 391.085px 290.039px;" id="elygss3f972bf" class="animable"></path><path d="M395.8,296.67a.23.23,0,0,1,.11-.45L408.73,298a38.14,38.14,0,0,1,8.86-2.12.23.23,0,0,1,.25.2.23.23,0,0,1-.2.26,37.69,37.69,0,0,0-8.79,2.11.25.25,0,0,1-.12,0l-12.88-1.75Z" style="fill: rgb(38, 50, 56); transform-origin: 406.733px 297.168px;" id="elpxm3pxrs96d" class="animable"></path><path d="M400.62,301.78a2.67,2.67,0,0,0-.29-2.09,3.28,3.28,0,0,0-1.47-1.38,8.2,8.2,0,0,0-1.65-.55,9.4,9.4,0,0,1-1.42-.45l-.32-.16h0c-.09-.06-.18-.1-.27-.17h0l-.38-.21h0l-.38-.24c-.35-.22-.71-.44-1-.62a4.39,4.39,0,0,0-.64-.33l-.12,0a3.58,3.58,0,0,0-3.25.08,2.5,2.5,0,0,0-.89,1c-.93,1.67-.37,2.57,0,2.95a2,2,0,0,0,2,.21,15.51,15.51,0,0,0,3.14-1.12l0,0a.84.84,0,0,0,.21-.11,6.14,6.14,0,0,0,.8-.49,6.64,6.64,0,0,0,.1.92.29.29,0,0,0,0,.09h0a9.61,9.61,0,0,0,.49,1.67c.44,1.19,1.15,2.65,2.25,3.07l.18.06C399,304.14,400.28,303,400.62,301.78Zm-10.24-2.5c-.74.2-1.24.17-1.54-.11-.55-.51-.54-1.36,0-2.38a1.94,1.94,0,0,1,.76-.79,3.43,3.43,0,0,1,2.93,0,12.75,12.75,0,0,1,1.59.91l.66.4a.09.09,0,0,0-.07,0,8.07,8.07,0,0,1-1.39.88A15.72,15.72,0,0,1,390.38,299.28Zm7.44,4.07c-1.06-.28-1.77-1.9-2.11-2.83a12.16,12.16,0,0,1-.41-1.38,6.41,6.41,0,0,1-.18-1.61s0,0,0,0l.5.25a9.94,9.94,0,0,0,1.49.48,8.24,8.24,0,0,1,1.57.51,2.77,2.77,0,0,1,1.34,1.36,2.28,2.28,0,0,1,.18,1.57C399.9,302.66,398.8,303.62,397.82,303.35Z" style="fill: rgb(38, 50, 56); transform-origin: 394.374px 299.584px;" id="elqqqr24itzqr" class="animable"></path><path d="M389.2,306.08h0a.23.23,0,0,1-.1-.32,45.9,45.9,0,0,1,5.34-8.12.34.34,0,0,1,.59.29,70.34,70.34,0,0,0-1.23,8.84.23.23,0,0,1-.46,0,74.2,74.2,0,0,1,1.13-8.39,45.64,45.64,0,0,0-5,7.64A.24.24,0,0,1,389.2,306.08Z" style="fill: rgb(38, 50, 56); transform-origin: 392.053px 302.261px;" id="el3xd5glbiw7y" class="animable"></path></g><g id="freepik--character-5--inject-1" class="animable" style="transform-origin: 367.711px 137.512px;"><path d="M406.27,125.4a27.4,27.4,0,0,1-9,37.7,27.28,27.28,0,0,1-16,4,19.92,19.92,0,0,1-2-.2A27.39,27.39,0,0,1,366,118.25a25.17,25.17,0,0,1,2.6-1.82,27.25,27.25,0,0,1,9.85-3.69l.15,0c.81-.13,1.62-.23,2.43-.28h0A27.41,27.41,0,0,1,405.36,124C405.67,124.46,406,124.92,406.27,125.4Z" style="fill: rgb(64, 123, 255); transform-origin: 382.949px 139.772px;" id="elte24hihn4p" class="animable"></path><g id="ele2s1icurd9k"><path d="M406.27,125.4a27.4,27.4,0,0,1-9,37.7,27.28,27.28,0,0,1-16,4,19.92,19.92,0,0,1-2-.2A27.39,27.39,0,0,1,366,118.25a25.17,25.17,0,0,1,2.6-1.82,27.25,27.25,0,0,1,9.85-3.69l.15,0c.81-.13,1.62-.23,2.43-.28h0A27.41,27.41,0,0,1,405.36,124C405.67,124.46,406,124.92,406.27,125.4Z" style="fill: rgb(255, 255, 255); opacity: 0.2; transform-origin: 382.949px 139.772px;" class="animable"></path></g><path d="M322.53,176.56a1,1,0,0,1-.5-1.87l62.55-36.11a1,1,0,0,1,1.36.36,1,1,0,0,1-.36,1.37L323,176.42A1,1,0,0,1,322.53,176.56Z" style="fill: rgb(64, 123, 255); transform-origin: 353.8px 157.504px;" id="elmo88isdr9cn" class="animable"></path><path d="M374.11,153.69c.14.22.28.46.41.69a29.69,29.69,0,0,1,1.84,4c1.18,3.18,2.31,6.7,5,8.73a19.92,19.92,0,0,1-2-.2,27.43,27.43,0,0,1-9.14-2.9,19.17,19.17,0,0,1-.57-2.38c-.24-1.38-1.05-6.43-.42-9.12a3.85,3.85,0,0,1,.17-.57,1.69,1.69,0,0,1,.89-1.07,2.16,2.16,0,0,1,2.24.71A10.32,10.32,0,0,1,374.11,153.69Z" style="fill: rgb(255, 181, 115); transform-origin: 375.178px 158.951px;" id="eluyuimgw9ei" class="animable"></path><path d="M368.26,148.34a5,5,0,0,0,.37,3.53,5.87,5.87,0,0,0,3.39,2.06c1.38.45,3.1.83,4.11-.2s.66-2.63.22-3.94A55.52,55.52,0,0,0,374,143.9C371.5,138.48,368.73,145.74,368.26,148.34Z" style="fill: rgb(38, 50, 56); transform-origin: 372.439px 148.163px;" id="el15ims1lsdfo" class="animable"></path><path d="M407.56,151.79a27.41,27.41,0,0,1-26.22,15.33,19.92,19.92,0,0,1-2-.2,83.57,83.57,0,0,1-6-12.63c-.13-.35-.24-.7-.35-1-.2-.6-.37-1.15-.52-1.67-.66-2.23-1-3.85-1.4-5.32a2.23,2.23,0,0,1-.1-.43,5.16,5.16,0,0,1,2-5.21c.34-.25.7-.5,1.08-.76s1-.68,1.6-1l.58-.36a91,91,0,0,1,8.91-4.27h0l.73-.3.83-.34c.68-.27,1.36-.51,2-.73h0a4.26,4.26,0,0,1,.47-.15h0l.36-.13c.06,0,1.14-.66,1.19-.68a4.32,4.32,0,0,1,4.44,1.32h0a4.7,4.7,0,0,1,.6.9,4.17,4.17,0,0,1,.29.75l.71.9.38.49.27.35,0,0,1.92,2.55.21.29.15.21.22.29A99,99,0,0,1,407.56,151.79Z" style="fill: rgb(64, 123, 255); transform-origin: 389.211px 149.471px;" id="el5ybs34lnden" class="animable"></path><g id="elej2hn0b86l5"><path d="M407.56,151.79a27.41,27.41,0,0,1-26.22,15.33,19.92,19.92,0,0,1-2-.2,83.57,83.57,0,0,1-6-12.63c-.13-.35-.24-.7-.35-1-.2-.6-.37-1.15-.52-1.67-.66-2.23-1-3.85-1.4-5.32a2.23,2.23,0,0,1-.1-.43,5.16,5.16,0,0,1,2-5.21c.34-.25.7-.5,1.08-.76s1-.68,1.6-1l.58-.36a91,91,0,0,1,8.91-4.27h0l.73-.3.83-.34c.68-.27,1.36-.51,2-.73h0a4.26,4.26,0,0,1,.47-.15h0l.36-.13c.06,0,1.14-.66,1.19-.68a4.32,4.32,0,0,1,4.44,1.32h0a4.7,4.7,0,0,1,.6.9,4.17,4.17,0,0,1,.29.75l.71.9.38.49.27.35,0,0,1.92,2.55.21.29.15.21.22.29A99,99,0,0,1,407.56,151.79Z" style="fill: rgb(255, 255, 255); opacity: 0.5; transform-origin: 389.211px 149.471px;" class="animable"></path></g><path d="M374.54,138.46a3.46,3.46,0,0,0-.46,2,13,13,0,0,0,2.28,7.11,2.66,2.66,0,0,1,3.89-3c.77.44,1.61,1.29,2.37.82a1.74,1.74,0,0,0,.57-.85l3-7.24a7.21,7.21,0,0,0,.73-2.74,2.45,2.45,0,0,0-1.38-2.32,3.17,3.17,0,0,0-1.32,0,12.89,12.89,0,0,0-7.56,3.93Z" style="fill: rgb(38, 50, 56); transform-origin: 380.497px 139.87px;" id="elzdwq1ux9x" class="animable"></path><path d="M380.47,127.38c4.17,5.25,5.93,7.23,4.15,9.15-1.49,1.6-2.52,3.56-4,5.17a3,3,0,0,1-4.49-.11,2.34,2.34,0,0,1-.48-2c.3-2.94-.59-4.11-.49-7l3-5.53A1.24,1.24,0,0,1,380.47,127.38Z" style="fill: rgb(255, 181, 115); transform-origin: 380.231px 134.527px;" id="el2plmz8615fb" class="animable"></path><g id="elrnvnjfdg0mr"><path d="M379.65,127.89a1.24,1.24,0,0,0-2.3-.32l-3,5.53c.87.88,1,3.07,1.32,4.26,1.06-.34,2.5-2,3.28-2.81a7.18,7.18,0,0,0,2-3.69A27.76,27.76,0,0,1,379.65,127.89Z" style="opacity: 0.2; isolation: isolate; transform-origin: 377.65px 132.141px;" class="animable"></path></g><path d="M381.68,120.4c.21.71.42,1.38.61,2,1,3.32,1.48,5.57.08,8.23-2.5,4.78-9.33,5-12.14,1.06-2.52-3.55-4.25-10.32-.06-13.85,3.4-2.87,8-2.35,10.31.35A5.66,5.66,0,0,1,381.68,120.4Z" style="fill: rgb(255, 181, 115); transform-origin: 375.441px 125.181px;" id="elbhtoejavt6p" class="animable"></path><path d="M374.18,123.28c.06.41-.1.78-.37.82s-.54-.26-.6-.67.1-.77.37-.81S374.12,122.88,374.18,123.28Z" style="fill: rgb(38, 50, 56); transform-origin: 373.695px 123.36px;" id="elqmrk33vuoc" class="animable"></path><path d="M369.93,124.9c.06.41-.1.77-.36.82s-.54-.26-.6-.67.1-.78.37-.82S369.88,124.5,369.93,124.9Z" style="fill: rgb(38, 50, 56); transform-origin: 369.45px 124.976px;" id="elwgsa1z23y6c" class="animable"></path><path d="M374.9,121.75a.24.24,0,0,1-.25-.06,1.92,1.92,0,0,0-1.66-.56.24.24,0,0,1-.29-.18h0a.24.24,0,0,1,.18-.29h0a2.44,2.44,0,0,1,2.1.69.25.25,0,0,1,0,.35Z" style="fill: rgb(38, 50, 56); transform-origin: 373.872px 121.197px;" id="el7qpfvmevuzt" class="animable"></path><path d="M367.2,123.8a.24.24,0,0,1-.3-.15.2.2,0,0,1,0-.15,2.39,2.39,0,0,1,1.5-1.64.24.24,0,0,1,.3.16h0a.25.25,0,0,1-.17.3h0a1.91,1.91,0,0,0-1.18,1.29A.25.25,0,0,1,367.2,123.8Z" style="fill: rgb(38, 50, 56); transform-origin: 367.796px 122.83px;" id="el1fhmmvzl5rx" class="animable"></path><path d="M370.54,125.35a12.57,12.57,0,0,1-1,3.33,2.07,2.07,0,0,0,1.72-.05Z" style="fill: rgb(255, 86, 82); transform-origin: 370.4px 127.097px;" id="elsk6epjcwksf" class="animable"></path><path d="M371,130.27a37.51,37.51,0,0,1,5.64-3.24c.05,1.43-.44,2.86-2.63,3.95S371,130.27,371,130.27Z" style="fill: rgb(38, 50, 56); transform-origin: 373.822px 129.18px;" id="elq2b9gal4w5c" class="animable"></path><path d="M374.62,129.54a4.93,4.93,0,0,0-2.12,1.77A2.7,2.7,0,0,0,374,131a4.8,4.8,0,0,0,2.12-1.76A2.73,2.73,0,0,0,374.62,129.54Z" style="fill: rgb(255, 86, 82); transform-origin: 374.31px 130.275px;" id="el0rbiml3ywl4" class="animable"></path><path d="M371.21,130.14a.93.93,0,0,0,.94.25,28.62,28.62,0,0,0,3.64-2.2,1.42,1.42,0,0,0,.69-1.06A43.66,43.66,0,0,0,371.21,130.14Z" style="fill: rgb(255, 255, 255); transform-origin: 373.845px 128.779px;" id="elr7cv9379iug" class="animable"></path><path d="M378,112.3a4.12,4.12,0,0,0-4.29-1.29,2.73,2.73,0,0,0,2.08,1.89,12.85,12.85,0,0,0-4.12-.77,1.28,1.28,0,0,0-1.06.33.89.89,0,0,0,.23,1.19,2.14,2.14,0,0,0,1.26.37,4.46,4.46,0,0,0-5.33.81,1.25,1.25,0,0,0,1.79,1,4.52,4.52,0,0,0-1.9.35,1.6,1.6,0,0,0-.95,1.55,1,1,0,0,0,1.44.73,1.12,1.12,0,0,0-.94,1.45,1.34,1.34,0,0,0,1.67.72,1.65,1.65,0,0,0,1-1.6,1.16,1.16,0,0,0,.3,1.65,1.32,1.32,0,0,0,1.69-.37,1.52,1.52,0,0,0-.07-1.77,1,1,0,1,0,1.71-.8,3.76,3.76,0,0,0,3.76,1.71,2.25,2.25,0,0,0-1.43-1.58,2.89,2.89,0,0,0,3.05.4l-.64-1a3,3,0,0,0,3.65.9,1.69,1.69,0,0,0-1.25-1.08,1.28,1.28,0,0,0,2-.35,2.07,2.07,0,0,0-.52-2.25,6,6,0,0,0-2.1-1.25,1.72,1.72,0,0,1,2.06.21,1.31,1.31,0,1,0-2.54-.46,1.74,1.74,0,0,0-1.35-.89Z" style="fill: rgb(38, 50, 56); transform-origin: 373.747px 115.844px;" id="elkb89q3tsnxb" class="animable"></path><g id="elp1dn0haebi"><path d="M381.68,120.4c.21.71.42,1.38.61,2a2.83,2.83,0,0,0-1.1,2.41c-.08-1.16-1.26-2.76-1.85-3.72s-1.57-1.4-2-2.15c-1.1-1.79,1.52-1.47,3.17-.75A5.66,5.66,0,0,1,381.68,120.4Z" style="opacity: 0.2; isolation: isolate; transform-origin: 379.684px 121.213px;" class="animable"></path></g><path d="M393.88,141.07l.78-.21.72-.2c.46-.14.91-.3,1.36-.45.9-.32,1.78-.66,2.66-1a38.7,38.7,0,0,0,5.09-2.6,32.65,32.65,0,0,0,4.73-3.44,49.73,49.73,0,0,0,4.24-4.75c.47-2.38,1.81.38-4.71-22.3-.27-1.08-1.41.6-2.5.87-.86.21-.82,1.21-.86,2.1l.83,11.26c0,.76-.05,1.5-.09,2.23l-.08,1.06c0,.34-.07.64-.11,1l.73-1.9a25.08,25.08,0,0,1-7,5.42,42.24,42.24,0,0,1-4.25,2c-.72.31-1.45.6-2.17.86l-1.11.38-.54.18-.48.14-.23.08a4,4,0,0,0-2.78,5c.62,2.14,3.64,4.92,5.79,4.31h0Z" style="fill: rgb(255, 181, 115); transform-origin: 400.921px 123.479px;" id="eljz6dophsb7n" class="animable"></path><path d="M402.72,134.88a4.08,4.08,0,0,1,.39,1.9,3.72,3.72,0,0,1-1.75,2.33,11.78,11.78,0,0,1-6.32,2.38,7.19,7.19,0,0,1-6-2.67,5.23,5.23,0,0,1,0-6.34,9,9,0,0,1,3.53-2.14c1.66-.69,5.17-3,7-2.15S402.07,133.16,402.72,134.88Z" style="fill: rgb(38, 50, 56); transform-origin: 395.541px 134.753px;" id="elhx7arhz2ca5" class="animable"></path><path d="M383.72,123.41a3.78,3.78,0,0,1-1.53,2.34c-1,.66-1.77-.34-1.73-1.65s.63-2.92,1.75-3S384,122.19,383.72,123.41Z" style="fill: rgb(255, 181, 115); transform-origin: 382.121px 123.528px;" id="elpl4e30hlzdl" class="animable"></path><path d="M408.83,106.59l-1.33-4.18-4.91,3.07s1.56,3.7,4,3.33Z" style="fill: rgb(255, 181, 115); transform-origin: 405.71px 105.623px;" id="elaxd5ar4d7f" class="animable"></path><path d="M407.5,102.41l-1.22-3.26a1.06,1.06,0,0,0-1.36-.62l-2.37.9a1.05,1.05,0,0,0-.68,1.14l.72,4.91S405.79,106.76,407.5,102.41Z" style="fill: rgb(255, 181, 115); transform-origin: 404.679px 102.06px;" id="eliy4ll1tdt6m" class="animable"></path></g><g id="freepik--character-4--inject-1" class="animable" style="transform-origin: 248.65px 97.5251px;"><path d="M248.9,140.34a1,1,0,0,1-1-1V107.23a1,1,0,1,1,2,0v32.11A1,1,0,0,1,248.9,140.34Z" style="fill: rgb(64, 123, 255); transform-origin: 248.9px 123.285px;" id="ells1liuxb7" class="animable"></path><g id="elhfe2yfhjigp"><circle cx="248.65" cy="93.52" r="27.5" style="fill: rgb(64, 123, 255); transform-origin: 248.65px 93.52px; transform: rotate(-48.7deg);" class="animable"></circle></g><g id="eleaqsbi94onq"><circle cx="248.65" cy="93.52" r="27.5" style="fill: rgb(255, 255, 255); opacity: 0.2; transform-origin: 248.65px 93.52px; transform: rotate(-48.7deg);" class="animable"></circle></g><path d="M228.84,109.2c1,1.19,2.07,2.39,3.11,3.59a20.26,20.26,0,0,0,4.76,4.44l2.51,1.1.55.23a5,5,0,0,0,7.09-4.81,106,106,0,0,0-1.64-16.11,20.32,20.32,0,0,0-1.71-5.48c-1.16-2-2.74,0-4.43,2.19-1.14,1.44-1.55,8.22,0,14.32-2.78-2-6.35-5.45-9.49-6.86-.65-.29-3.37,1.61-3.14,3.22A8.7,8.7,0,0,0,228.84,109.2Z" style="fill: rgb(64, 123, 255); transform-origin: 236.652px 105.179px;" id="elb66zynb97ld" class="animable"></path><path d="M236.71,117.23a8.54,8.54,0,0,0,2.51,1.1Z" style="fill: rgb(64, 123, 255); transform-origin: 237.965px 117.78px;" id="elhvqoubj2zy" class="animable"></path><g id="el7ms5270gb6j"><path d="M228.84,109.2c1,1.19,2.07,2.39,3.11,3.59a20.26,20.26,0,0,0,4.76,4.44l2.51,1.1.55.23a5,5,0,0,0,7.09-4.81,106,106,0,0,0-1.64-16.11,20.32,20.32,0,0,0-1.71-5.48c-1.16-2-2.74,0-4.43,2.19-1.14,1.44-1.55,8.22,0,14.32-2.78-2-6.35-5.45-9.49-6.86-.65-.29-3.37,1.61-3.14,3.22A8.7,8.7,0,0,0,228.84,109.2Z" style="fill: rgb(255, 255, 255); opacity: 0.4; transform-origin: 236.652px 105.179px;" class="animable"></path></g><g id="elxs2kb6ll9zn"><path d="M236.71,117.23a8.54,8.54,0,0,0,2.51,1.1Z" style="fill: rgb(255, 255, 255); opacity: 0.4; transform-origin: 237.965px 117.78px;" class="animable"></path></g><path d="M229.05,102.88l0-4.5-4.89,1.85s1.21,3,3,4Z" style="fill: rgb(239, 182, 154); transform-origin: 226.605px 101.305px;" id="elndytswgbju" class="animable"></path><polygon points="226.1 93.86 223.28 96.74 224.19 100.21 229.07 98.35 226.1 93.86" style="fill: rgb(239, 182, 154); transform-origin: 226.175px 97.035px;" id="eli0vkul4ww8a" class="animable"></polygon><path d="M241.42,105c.94,3.56,3.7,8.22,5.88,14.16a.7.7,0,0,0,.09.17l.75.14h0l.66.13,14-2.62,0,0c.19-.11.37-.24.55-.36h0c.63-.43,1.26-.87,1.88-1.32-1.29-6.8-1.91-13.27-1.11-27.34a2.45,2.45,0,0,0-2.3-2.6,3.13,3.13,0,0,0-.53,0c-1.45.23-3.28.58-5.11,1.06a63.67,63.67,0,0,0-8.51,2.69c-2.36,1-4.9,2.24-6.37,3a2.48,2.48,0,0,0-1.3,2.33A42.79,42.79,0,0,0,241.42,105Z" style="fill: rgb(38, 50, 56); transform-origin: 252.613px 102.474px;" id="el6fn47gci2n" class="animable"></path><g id="elyowk8asrzvq"><path d="M249.17,99.22a.7.7,0,1,1-.83-.53A.68.68,0,0,1,249.17,99.22Z" style="fill: rgb(255, 255, 255); opacity: 0.4; transform-origin: 248.487px 99.3723px;" class="animable"></path></g><g id="elmau3zegols"><path d="M251.21,106.57a.7.7,0,0,1-1.36.3.69.69,0,0,1,.53-.83A.71.71,0,0,1,251.21,106.57Z" style="fill: rgb(255, 255, 255); opacity: 0.4; transform-origin: 250.524px 106.688px;" class="animable"></path></g><path d="M258.84,85.83,258.4,87c-1.65,4.37-6.07,10.3-8,11.11a7.56,7.56,0,0,0-2.53-2.47,4.43,4.43,0,0,0-1.87,3,11.33,11.33,0,0,1-2.35-7.88h0c1-.46,2-.94,3-1.35a64.81,64.81,0,0,1,8.52-2.69A31,31,0,0,1,258.84,85.83Z" style="fill: rgb(64, 123, 255); transform-origin: 251.226px 92.235px;" id="eletsr2icg5ua" class="animable"></path><g id="elyzxfa9hxu78"><g style="opacity: 0.3; transform-origin: 251.226px 92.235px;" class="animable"><path d="M258.84,85.83,258.4,87c-1.65,4.37-6.07,10.3-8,11.11a7.56,7.56,0,0,0-2.53-2.47,4.43,4.43,0,0,0-1.87,3,11.33,11.33,0,0,1-2.35-7.88h0c1-.46,2-.94,3-1.35a64.81,64.81,0,0,1,8.52-2.69A31,31,0,0,1,258.84,85.83Z" style="fill: rgb(255, 255, 255); transform-origin: 251.226px 92.235px;" id="elwk2jxwfvg2m" class="animable"></path></g></g><path d="M233.32,75.94a14.37,14.37,0,0,1-.56,10.2c-2.32,5.86,5.92,7.45,10.87,6,4.37-1.3,13.29-7.88,14.2-11.89s-3.65-3-6.5-9.29-7.59-4.24-11.63-3.36C233.88,67.55,231.85,72,233.32,75.94Z" style="fill: rgb(38, 50, 56); transform-origin: 245.153px 79.6055px;" id="ele77tr9twtf7" class="animable"></path><path d="M246.05,86.28c1.53,1.34,2.82,3,1.42,5.56a2.69,2.69,0,0,0-.32,1.75c.19,1,.95,1.76,3.65-.74,3.91-3.63,2.88-6.54,2.88-6.54-2.52-.2-5-4.85-6.19-7.57Z" style="fill: rgb(239, 182, 154); transform-origin: 249.926px 86.6363px;" id="el7nm9f56jngm" class="animable"></path><g id="el76r13l7oqs7"><path d="M248.17,83.06c.62,1.13-.24,3.34-1,4.31a8.55,8.55,0,0,0-1.07-1.1l.86-4.45A4.25,4.25,0,0,1,248.17,83.06Z" style="opacity: 0.2; isolation: isolate; transform-origin: 247.241px 84.595px;" class="animable"></path></g><path d="M246.9,71.1a6.45,6.45,0,0,0-9.12-.35c-3.7,3.38-1.88,10.18.55,13.81,2.67,4,8.55,3.35,10.66-1.32,1.42-3.12.74-5-.62-9.54A6.41,6.41,0,0,0,246.9,71.1Z" style="fill: rgb(239, 182, 154); transform-origin: 242.726px 78.1115px;" id="elb0ozbfigmlj" class="animable"></path><path d="M237.94,79.49a.4.4,0,0,0-.26-.21.49.49,0,0,0-.33.07.64.64,0,0,0-.26.66l-.39.06a1,1,0,0,1,.44-1l.12-.07a.75.75,0,0,1,1,.34Z" style="fill: rgb(38, 50, 56); transform-origin: 237.473px 79.4971px;" id="elszsihaw4can" class="animable"></path><path d="M242.39,77.45c.11.37,0,.73-.22.81s-.54-.16-.66-.52,0-.73.22-.81S242.26,77.11,242.39,77.45Z" style="fill: rgb(38, 50, 56); transform-origin: 241.948px 77.5954px;" id="eloyavpn0a1n" class="animable"></path><path d="M241.86,77l-1,0S241.56,77.5,241.86,77Z" style="fill: rgb(38, 50, 56); transform-origin: 241.36px 77.1111px;" id="elybijwa59xgk" class="animable"></path><path d="M240.31,82a1.69,1.69,0,0,1-1.38.24,10.16,10.16,0,0,0,.44-2.79Z" style="fill: rgb(237, 137, 62); transform-origin: 239.62px 80.8723px;" id="elzxude6pr5q" class="animable"></path><path d="M243.81,81.06a.11.11,0,0,0-.08-.14.12.12,0,0,0-.14.09,3,3,0,0,1-1.92,2,.11.11,0,0,0-.06.14h0a.11.11,0,0,0,.14.06,3.16,3.16,0,0,0,.5-.22A3.21,3.21,0,0,0,243.81,81.06Z" style="fill: rgb(234, 107, 63); transform-origin: 242.709px 82.0674px;" id="elgo51xu6tq77" class="animable"></path><path d="M233.52,72.75c-1.14,2.35,2.08,4.11,2.19,2.77.17-2.2,1.83-3.07,1.44-4.79C236.54,68,234.66,70.4,233.52,72.75Z" style="fill: rgb(38, 50, 56); transform-origin: 235.243px 72.7495px;" id="el9428hu0hltd" class="animable"></path><path d="M242,75h0a.23.23,0,0,0-.11-.3,3.07,3.07,0,0,0-2.56.25.22.22,0,0,0-.08.3.23.23,0,0,0,.31.09,2.57,2.57,0,0,1,2.13-.24.23.23,0,0,0,.26,0Z" style="fill: rgb(38, 50, 56); transform-origin: 240.62px 74.9485px;" id="el67jwslpwxp6" class="animable"></path><path d="M235.54,77.92a1.78,1.78,0,0,1,1.21-1.1h0a.22.22,0,1,0-.09-.44,2.25,2.25,0,0,0-1.54,1.37h0a.23.23,0,0,0,.13.29.22.22,0,0,0,.22,0A.34.34,0,0,0,235.54,77.92Z" style="fill: rgb(38, 50, 56); transform-origin: 236.018px 77.2225px;" id="elvvin2jeoa4" class="animable"></path><path d="M240.1,71.63a4.9,4.9,0,0,1,3.84,1.67,8.62,8.62,0,0,0,1.34,1.54c.54.39,2.43,2.06,3,2.34s.08-1.23.51-1.63a9.77,9.77,0,0,0,1.31-1.17,2.61,2.61,0,0,0,.3-2.32,4.89,4.89,0,0,0-1.36-2,8.58,8.58,0,0,0-12.23.51c-.5.55-1.26,1.91.47,2.06.47,0,.41-.31.84-.52A4.73,4.73,0,0,1,240.1,71.63Z" style="fill: rgb(38, 50, 56); transform-origin: 243.376px 72.4787px;" id="eljf4kzk85rrj" class="animable"></path><path d="M251.76,74.16c-1.87-1.16-3.78-.74-5.48-.37a6.26,6.26,0,0,1-2.44.25c-1.87-.37-3.45-2.57-3.81-3.33a2.09,2.09,0,0,0-1.72-1,1.79,1.79,0,0,0-1.29.94,2,2,0,0,0,.51,1.88l-.22.15a2.22,2.22,0,0,1-.54-2.13,2.08,2.08,0,0,1,1.5-1.1,2.3,2.3,0,0,1,2,1.18c.33.69,1.88,2.83,3.62,3.18a6.22,6.22,0,0,0,2.34-.25c1.66-.36,3.71-.82,5.67.4Z" style="fill: rgb(38, 50, 56); transform-origin: 244.295px 71.805px;" id="el7ab1aiuzgui" class="animable"></path><g id="elb25665ui0dm"><path d="M251.76,74.16c-1.87-1.16-3.78-.74-5.48-.37a6.26,6.26,0,0,1-2.44.25c-1.87-.37-3.45-2.57-3.81-3.33a2.09,2.09,0,0,0-1.72-1,1.79,1.79,0,0,0-1.29.94,2,2,0,0,0,.51,1.88l-.22.15a2.22,2.22,0,0,1-.54-2.13,2.08,2.08,0,0,1,1.5-1.1,2.3,2.3,0,0,1,2,1.18c.33.69,1.88,2.83,3.62,3.18a6.22,6.22,0,0,0,2.34-.25c1.66-.36,3.71-.82,5.67.4Z" style="fill: rgb(255, 255, 255); opacity: 0.1; transform-origin: 244.295px 71.805px;" class="animable"></path></g><path d="M250.82,76.19a1.54,1.54,0,0,0-2-.93c-1.11.42-1.3,2.08-1.08,3.09s1.26,1.76,2.13.91a3.43,3.43,0,0,0,1-2.44A1.36,1.36,0,0,0,250.82,76.19Z" style="fill: rgb(239, 182, 154); transform-origin: 249.273px 77.3945px;" id="el223m06ilduh" class="animable"></path><path d="M247.71,119.39c-.74,2.22.56,1.54,1.16,1.64.09,0,.26,0,.35,0a24,24,0,0,0,13.54-4l.11-.08c.19-.11.37-.24.55-.36l-6.56,1.24-.59.12-2.51.47-.6.12Z" style="fill: rgb(64, 123, 255); transform-origin: 255.454px 118.822px;" id="eldrt55ydrf3b" class="animable"></path><g id="elq7fn0eny3kq"><g style="opacity: 0.4; transform-origin: 255.454px 118.822px;" class="animable"><path d="M247.71,119.39c-.74,2.22.56,1.54,1.16,1.64.09,0,.26,0,.35,0a24,24,0,0,0,13.54-4l.11-.08c.19-.11.37-.24.55-.36l-6.56,1.24-.59.12-2.51.47-.6.12Z" style="fill: rgb(255, 255, 255); transform-origin: 255.454px 118.822px;" id="eljz7hcq4kfql" class="animable"></path></g></g><path d="M252.39,93.07c.94,3.13,6.52,14.53,13,13.47a4.18,4.18,0,0,0,2.57-1.6s0,0,0,0c4.46-4.23-2.87-18.36-4.09-19a3.61,3.61,0,0,0-5.32,2.94,13.15,13.15,0,0,1-.64-1.37c-.62-1.57-2.34-5.16-4-5.08-1,0-3.06.4-3.47,1.34S250.83,87.89,252.39,93.07Z" style="fill: rgb(64, 123, 255); transform-origin: 259.859px 94.519px;" id="el3ioc01joxti" class="animable"></path><g id="elq25eygmgyjk"><path d="M252.39,93.07c.94,3.13,6.52,14.53,13,13.47a4.18,4.18,0,0,0,2.57-1.6s0,0,0,0c4.46-4.23-2.87-18.36-4.09-19a3.61,3.61,0,0,0-5.32,2.94,13.15,13.15,0,0,1-.64-1.37c-.62-1.57-2.34-5.16-4-5.08-1,0-3.06.4-3.47,1.34S250.83,87.89,252.39,93.07Z" style="fill: rgb(255, 255, 255); opacity: 0.4; transform-origin: 259.859px 94.519px;" class="animable"></path></g><g id="el1752lbf8slj"><g style="opacity: 0.2; isolation: isolate; transform-origin: 249.085px 78.595px;" class="animable"><path d="M248.84,75.26l0,.29.31,2.82.78,3.56-1-2a5,5,0,0,1-.45-1.66l-.24-2.73Z" id="elgv5y9kayzin" class="animable" style="transform-origin: 249.085px 78.595px;"></path></g></g><path d="M253.9,83.09l-.45-5.72-4.63,1s1.3,4.08,2.76,5.24Z" style="fill: rgb(239, 182, 154); transform-origin: 251.36px 80.49px;" id="elt8rzm22xhie" class="animable"></path><polygon points="251.81 73.76 248.52 75.11 248.84 78.33 253.45 77.37 251.81 73.76" style="fill: rgb(239, 182, 154); transform-origin: 250.985px 76.045px;" id="elfvcgpjy9z5g" class="animable"></polygon></g><g id="freepik--character-3--inject-1" class="animable" style="transform-origin: 115.872px 144.402px;"><path d="M162.68,176.1a1,1,0,0,1-.5-.14l-27.72-16a1,1,0,1,1,1-1.73l27.72,16a1,1,0,0,1-.5,1.87Z" style="fill: rgb(64, 123, 255); transform-origin: 148.805px 167.087px;" id="elpalt9o5e5nn" class="animable"></path><path d="M142.2,150.62l-.07.43a39.44,39.44,0,0,1-1.19,4.79c-.2.62-.42,1.24-.65,1.85-.31.83-.66,1.66-1,2.45,0,.11-.09.21-.13.31a37.34,37.34,0,0,1-61.7,8.73,37.35,37.35,0,0,1,30.37-62.05,38.18,38.18,0,0,1,3.8.45l.39.07h0c.67.13,1.33.27,2,.43h0a37,37,0,0,1,11.35,4.78,37.37,37.37,0,0,1,17.33,31.92h0a40,40,0,0,1-.37,4.85C142.31,150,142.26,150.3,142.2,150.62Z" style="fill: rgb(64, 123, 255); transform-origin: 105.379px 144.415px;" id="elzy2zuft28ng" class="animable"></path><g id="el5tycz47io66"><path d="M142.2,150.62l-.07.43a39.44,39.44,0,0,1-1.19,4.79c-.2.62-.42,1.24-.65,1.85-.31.83-.66,1.66-1,2.45,0,.11-.09.21-.13.31a37.34,37.34,0,0,1-61.7,8.73,37.35,37.35,0,0,1,30.37-62.05,38.18,38.18,0,0,1,3.8.45l.39.07h0c.67.13,1.33.27,2,.43h0a37,37,0,0,1,11.35,4.78,37.37,37.37,0,0,1,17.33,31.92h0a40,40,0,0,1-.37,4.85C142.31,150,142.26,150.3,142.2,150.62Z" style="fill: rgb(255, 255, 255); opacity: 0.2; transform-origin: 105.379px 144.415px;" class="animable"></path></g><path d="M159.79,119.74c-.45-4.27-3.33-5.47-4.43-4.94s-2.91,1.61-2.91,1.61c-.28,1.71-1.12,5.54-1,7.12a6.33,6.33,0,0,0,1.58,3.89,3.29,3.29,0,0,0,3.3,1c1.2-.46,2-2.34,2.32-3.55C159,123.46,160,121.51,159.79,119.74Z" style="fill: rgb(178, 91, 82); transform-origin: 155.629px 121.606px;" id="elbht7sagvxvm" class="animable"></path><path d="M150.41,151.93c-.75,2.21-1.48,4.32-2.15,6.18,0,.11-.07.21-.12.32a3.83,3.83,0,0,1-.17.43,4.13,4.13,0,0,1-1,1.59,1.16,1.16,0,0,1-.21.16,21.31,21.31,0,0,1-3.33.19c-.73,0-1.46-.05-2.22-.12h-.09c-1.26-.12-2.56-.3-3.87-.53-1.48-.26-3-.58-4.49-1-2.51-.6-5-1.31-7.54-2l-.08,0c-1.64-.46-3.25-.92-4.83-1.35-1.39-.38-2-5.39-2.38-6.66q-.2-.75-.3-1.38a4.25,4.25,0,0,1,0-2c.24-.73.86-1.18,2-1.29a18.68,18.68,0,0,1,5.64.82c2.34.6,5.78,1.46,9.37,2.36l2.15.54.62.16,2.05.52,1.62.4.12,0c2.38.62,4.53,1.16,6.16,1.6A20.88,20.88,0,0,1,150.41,151.93Z" style="fill: rgb(38, 50, 56); transform-origin: 133.96px 152.637px;" id="eljam4q6d15in" class="animable"></path><g id="elwddyq9klzuh"><path d="M141.17,160.68h-.08c-1.26-.11-2.56-.3-3.88-.53-1.47-.26-3-.58-4.48-1-2.51-.6-5-1.31-7.54-2l-.08,0c.19-2.57-.08-7.77-.08-7.77C131.93,158.83,140.83,160.62,141.17,160.68Z" style="opacity: 0.2; isolation: isolate; transform-origin: 133.1px 155.03px;" class="animable"></path></g><g id="el5wh6n0yr8xd"><path d="M148.22,158.93l-.25-.07c-4.5-1.27-9.62-3.49-11-7.93a4.32,4.32,0,0,1,.44-2.53l2.05.52,1.62.4.12,0a4.28,4.28,0,0,0,.32.73l4.19,7c.5.84,2,.77,2.4,1.36A.58.58,0,0,1,148.22,158.93Z" style="opacity: 0.2; isolation: isolate; transform-origin: 142.587px 153.665px;" class="animable"></path></g><path d="M156,135.82c-1.65,4.6-3.67,10.67-5.54,16.11-.75,2.21-1.48,4.32-2.15,6.18a5.49,5.49,0,0,1-1.32,2.34,1.16,1.16,0,0,1-.21.16,3.36,3.36,0,0,1-3.33.19,5.49,5.49,0,0,1-2.05-1.46,7.81,7.81,0,0,1-.48-9.33c.07-.23.16-.46.24-.69,1.6-4.58,4.12-11.42,6.06-15.59.68-1.47,2.35-5.83,3.47-7,2.43-1,4.26-.55,6.57,2.26C158.92,131.07,156.75,133.59,156,135.82Z" style="fill: rgb(38, 50, 56); transform-origin: 148.736px 143.699px;" id="el0mwlfup16i4h" class="animable"></path><path d="M125.38,156.23c-.07.32-.13.63-.2,1C124,163,122.63,170,121,178.36a37.4,37.4,0,0,1-36.61-3.07c-.25-1.51-.51-3.11-.78-4.75,0,0,0,0,0-.08a.43.43,0,0,1,0-.05c-.41-2.5-.82-5.09-1.21-7.59-.81-5.08-1.5-9.82-1.73-12.73,0-.54-.07-1-.08-1.42a6.06,6.06,0,0,1,0-.74v0c.11-2.47,1-6.76,3-8.83a4,4,0,0,1,1.39-.94c2.6-1,5.5-.81,8.37-.26h0c2,.39,4.07,1,6,1.35a2.47,2.47,0,0,1,.29.06c3.54.72,7.09,1.09,10.61,1.83h0a36.56,36.56,0,0,1,4.17,1.09c.56.18,1.11.38,1.66.59h0a26.51,26.51,0,0,1,3.6,1.72h0a13.46,13.46,0,0,1,5.37,4.86C126.25,151.67,125.83,153.94,125.38,156.23Z" style="fill: rgb(38, 50, 56); transform-origin: 103.206px 159.605px;" id="el7akou4khbi2" class="animable"></path><path d="M114.87,144.55a6.66,6.66,0,0,1,3.68,2.14c-4.9,5.76-11,9.2-11.2,8.95-5.77-3.09-12.58-8-15.79-13.82a7.85,7.85,0,0,1,2.8-1.11c-1.49-3-1.77-5.88.51-8,1.51-1.43,4-1.66,6.09-1.17a29.54,29.54,0,0,1,6,2.5,42.8,42.8,0,0,0,16.12,4A14.47,14.47,0,0,0,114.87,144.55Z" style="fill: rgb(64, 123, 255); transform-origin: 107.32px 143.479px;" id="el9kzn66zl3m5" class="animable"></path><g id="el9w14uyte4vg"><path d="M114.87,144.55a6.66,6.66,0,0,1,3.68,2.14c-4.9,5.76-11,9.2-11.2,8.95-5.77-3.09-12.58-8-15.79-13.82a7.85,7.85,0,0,1,2.8-1.11c-1.49-3-1.77-5.88.51-8,1.51-1.43,4-1.66,6.09-1.17a29.54,29.54,0,0,1,6,2.5,42.8,42.8,0,0,0,16.12,4A14.47,14.47,0,0,0,114.87,144.55Z" style="fill: rgb(255, 255, 255); opacity: 0.5; transform-origin: 107.32px 143.479px;" class="animable"></path></g><path d="M104.26,127.4l8.1,8c-2,2.39-3.46,5.09-1.06,7.45a3.43,3.43,0,0,1,0,4.85c-.06.05-.11.11-.18.16-1.47,1.29-4.94,4.61-4.94,4.61s-6.51-7.48-7.75-10.18c-.5-1.12.64-1.82,1.13-3C101.38,135.35,103.51,131.24,104.26,127.4Z" style="fill: rgb(178, 91, 82); transform-origin: 105.333px 139.935px;" id="elmtf0tb57h5e" class="animable"></path><g id="elgvfuttrwv7d"><path d="M108.41,129.88l4,5.55a13.55,13.55,0,0,0-1.5,2.12c-2.42,0-5.16-3.1-4.57-5A8.72,8.72,0,0,1,108.41,129.88Z" style="opacity: 0.2; isolation: isolate; transform-origin: 109.334px 133.715px;" class="animable"></path></g><path d="M104.31,118.58c-1.28,6-2.32,9.48-.15,13.32,3.26,5.76,11.34,5,14.38-.54,2.74-5,4.34-14-.82-17.88a8.48,8.48,0,0,0-11.87,1.65A8.61,8.61,0,0,0,104.31,118.58Z" style="fill: rgb(178, 91, 82); transform-origin: 112.002px 123.825px;" id="elnbtgo9sfh" class="animable"></path><path d="M103.4,113.92c-.84,2.41-1.67,5.08-.71,7.45.57,1.4,1.76,2.69,1.54,4.2,1.41-2.58,4.16-7.16,3.87-10.2C107.88,112.93,104.46,110.83,103.4,113.92Z" style="fill: rgb(38, 50, 56); transform-origin: 105.191px 118.972px;" id="el1n6fo8nfxw4" class="animable"></path><path d="M100.62,123.36a5.74,5.74,0,0,0,2.38,3.5c1.54,1,2.71-.5,2.62-2.43-.1-1.75-1-4.39-2.71-4.55S100.19,121.54,100.62,123.36Z" style="fill: rgb(178, 91, 82); transform-origin: 103.073px 123.525px;" id="elpa8kxzzjzj" class="animable"></path><path d="M111.68,122.22a.76.76,0,0,0,.33,1c.32.09.68-.23.81-.72s0-.94-.33-1S111.81,121.74,111.68,122.22Z" style="fill: rgb(38, 50, 56); transform-origin: 112.238px 122.364px;" id="el6acbrmijbw" class="animable"></path><path d="M118.25,123.91c-.13.48,0,1,.33,1s.68-.23.81-.71,0-.94-.33-1S118.38,123.43,118.25,123.91Z" style="fill: rgb(38, 50, 56); transform-origin: 118.82px 124.051px;" id="eliox31o43cd" class="animable"></path><path d="M117,124a18,18,0,0,0,1.19,4.73,2.84,2.84,0,0,1-2.43-.18Z" style="fill: rgb(157, 39, 36); transform-origin: 116.975px 126.461px;" id="elf8fuvvnsb9" class="animable"></path><path d="M115.4,119.33a.26.26,0,0,1,0,.15.31.31,0,0,1-.32.26,2.93,2.93,0,0,1-2.29-1.41.28.28,0,0,1,.13-.39h0a.31.31,0,0,1,.4.13h0a2.38,2.38,0,0,0,1.83,1.11A.26.26,0,0,1,115.4,119.33Z" style="fill: rgb(38, 50, 56); transform-origin: 114.083px 118.826px;" id="el4t4lens81mr" class="animable"></path><path d="M116.09,121.12A.21.21,0,0,1,116,121a.3.3,0,0,1,.23-.35,3,3,0,0,1,2.61.66.29.29,0,0,1,0,.41h0a.3.3,0,0,1-.42,0h0a2.38,2.38,0,0,0-2.07-.5A.26.26,0,0,1,116.09,121.12Z" style="fill: rgb(38, 50, 56); transform-origin: 117.46px 121.193px;" id="elbgg1wp21g" class="animable"></path><g id="el8oni2p1n0eo"><rect x="106.63" y="116.97" width="0.67" height="6.2" style="fill: rgb(38, 50, 56); transform-origin: 106.965px 120.07px; transform: rotate(-89.4deg);" class="animable"></rect></g><path d="M115.89,122.31a.21.21,0,0,1-.07-.13.3.3,0,0,1,.23-.35,3,3,0,0,1,2.61.66.29.29,0,0,1,0,.41h0a.31.31,0,0,1-.42,0h0a2.38,2.38,0,0,0-2.07-.5A.27.27,0,0,1,115.89,122.31Z" style="fill: rgb(38, 50, 56); transform-origin: 117.28px 122.371px;" id="el0zyjuica37l" class="animable"></path><path d="M122.42,120.35a.29.29,0,0,1-.24-.13,2.26,2.26,0,0,0-1.77-1.16.29.29,0,0,1-.28-.3.28.28,0,0,1,.3-.28,2.84,2.84,0,0,1,2.26,1.43.31.31,0,0,1-.14.39A.21.21,0,0,1,122.42,120.35Z" style="fill: rgb(38, 50, 56); transform-origin: 121.421px 119.415px;" id="elznz7zelzn6b" class="animable"></path><path d="M116.52,120.52c.78.4,0,7.07-4.44,5.91-3.71-1-4.08-4.9-3.29-5.85C111,117.9,115.4,120,116.52,120.52Z" style="fill: rgb(38, 50, 56); transform-origin: 112.616px 122.906px;" id="elmyc0cfelsrn" class="animable"></path><path d="M118.35,121.1c-.62.13-1.75,7.14,1.46,7.48,2.73.29,3.55-3.45,3.54-4.76C122.57,120.93,119.24,120.89,118.35,121.1Z" style="fill: rgb(38, 50, 56); transform-origin: 120.496px 124.81px;" id="el2l6q2nr24u7" class="animable"></path><g id="el6kyop8h96oc"><g style="opacity: 0.2; transform-origin: 116.655px 124.086px;" class="animable"><path d="M115,120.06l.83,4.87a3.4,3.4,0,0,1-1.92,1.53l-1.13-6.74A16.77,16.77,0,0,1,115,120.06Z" style="fill: rgb(255, 255, 255); transform-origin: 114.305px 123.09px;" id="elb5vxjfxh585" class="animable"></path><path d="M111.75,119.62l1.18,6.89a3.8,3.8,0,0,1-.82-.14,2.47,2.47,0,0,1-.52-.18l-1.12-6.55A7.82,7.82,0,0,1,111.75,119.62Z" style="fill: rgb(255, 255, 255); transform-origin: 111.7px 123.056px;" id="eld3bozv92hyq" class="animable"></path><path d="M122.1,122.08l.74,4.31a4.13,4.13,0,0,1-1.11,1.59l-1.11-6.57A7.56,7.56,0,0,1,122.1,122.08Z" style="fill: rgb(255, 255, 255); transform-origin: 121.73px 124.695px;" id="ely5ewg0dszo" class="animable"></path><path d="M121.16,128.36a2.15,2.15,0,0,1-.79.21l-1.27-7.49c.29,0,.57.09.85.15Z" style="fill: rgb(255, 255, 255); transform-origin: 120.13px 124.825px;" id="elk8cuoo1exg" class="animable"></path></g></g><path d="M115.14,130.83h0a5.5,5.5,0,0,1-4.27-2.73.2.2,0,0,1,.08-.26h0a.19.19,0,0,1,.26.09,5.18,5.18,0,0,0,4,2.52.19.19,0,0,1,.16.22.18.18,0,0,1-.2.16Z" style="fill: rgb(38, 50, 56); transform-origin: 113.111px 129.325px;" id="el5zwth0io3m9" class="animable"></path><path d="M105.6,108.67a3.41,3.41,0,0,1,3.08-1.64,14.88,14.88,0,0,1,3.6.69,21,21,0,0,0,7.4.49,17,17,0,0,1,3.1-.22,3.6,3.6,0,0,1,2.71,1.33,3.49,3.49,0,0,1-.73,4.36,9.09,9.09,0,0,1-4.34,2c-3.5.82-7.54,1.28-10.87-.43C107.54,114.19,104.38,111.15,105.6,108.67Z" style="fill: rgb(38, 50, 56); transform-origin: 115.64px 111.72px;" id="eld3t794ufwts" class="animable"></path><g id="elk0ua2hoaqke"><path d="M81.22,150.05c7.9-5.45,8.5,7.12,7.35,12.56,0,.06,0,.13,0,.2-1.46,6.67-5,7.72-5,7.72s-4-20.79-3.5-20.8C80.19,149.73,80.69,150.41,81.22,150.05Z" style="opacity: 0.2; isolation: isolate; transform-origin: 84.5228px 159.62px;" class="animable"></path></g><path d="M87.72,157.29a36.46,36.46,0,0,0-5.38,5.53l-.18.21c-.66.77-1.39,1.66-2.21,2.65a31.47,31.47,0,0,0-2,2.63c-.21.3-.4.59-.58.87a37.13,37.13,0,0,1-6.71-10.84c1.81-3.83,3.85-8.69,6.56-12.54,1-1.46,2.9-4,2.91-4a10.32,10.32,0,0,1,3.34-2.73h0a7.44,7.44,0,0,1,1.55-.64c1.45-.23,3.38,8.66,3.62,14.26,0,.43,0,.85,0,1.24v.19a6.21,6.21,0,0,1-.43,2.62,1,1,0,0,1-.14.2,1.19,1.19,0,0,1-.25.2s0,0,0,0Z" style="fill: rgb(38, 50, 56); transform-origin: 79.6543px 153.803px;" id="elt8bh0y8mwc" class="animable"></path></g><g id="freepik--character-2--inject-1" class="animable" style="transform-origin: 108.686px 273.42px;"><path d="M118.05,276.35A26.9,26.9,0,0,1,103,300.52l-.14.07c-.24.11-.47.23-.72.33h0l-.08,0c-.44.2-.89.38-1.34.55l-.43.15a26.67,26.67,0,0,1-9.06,1.58h0a27.09,27.09,0,0,1-9.09-1.59,27.81,27.81,0,0,1-4.21-1.95c-.69-.4-1.36-.82-2-1.29l-.49-.35a26.84,26.84,0,0,1-10.84-18.53,20.74,20.74,0,0,1-.16-2.1h0c0-.35,0-.71,0-1.07a26.88,26.88,0,1,1,53.75,0Z" style="fill: rgb(64, 123, 255); transform-origin: 91.315px 276.061px;" id="elqnb6nd9wuh" class="animable"></path><g id="ele2011rv4l8t"><path d="M118.05,276.35A26.9,26.9,0,0,1,103,300.52l-.14.07c-.24.11-.47.23-.72.33h0l-.08,0c-.44.2-.89.38-1.34.55l-.43.15a26.67,26.67,0,0,1-9.06,1.58h0a27.09,27.09,0,0,1-9.09-1.59,27.81,27.81,0,0,1-4.21-1.95c-.69-.4-1.36-.82-2-1.29l-.49-.35a26.84,26.84,0,0,1-10.84-18.53,20.74,20.74,0,0,1-.16-2.1h0c0-.35,0-.71,0-1.07a26.88,26.88,0,1,1,53.75,0Z" style="fill: rgb(255, 255, 255); opacity: 0.2; transform-origin: 91.315px 276.061px;" class="animable"></path></g><path d="M114.1,270a1,1,0,0,1-.5-1.87l37.8-21.82a1,1,0,1,1,1,1.73l-37.8,21.82A1,1,0,0,1,114.1,270Z" style="fill: rgb(64, 123, 255); transform-origin: 133.015px 258.077px;" id="elfyydkbw6naj" class="animable"></path><path d="M111.24,245.55c-1.76-2.45-3.93-2.17-4.42-1.47s-1.21,2-1.21,2a31.47,31.47,0,0,0,1.88,4.66,4.43,4.43,0,0,0,2.32,1.82,2.25,2.25,0,0,0,2.34-.54c.58-.7.43-2.13.19-3C112.05,248.08,112,246.56,111.24,245.55Z" style="fill: rgb(255, 181, 115); transform-origin: 109.081px 248.138px;" id="elmrnj1uc6ayl" class="animable"></path><path d="M116.72,268.39c.31,1.6.59,3.14.84,4.51,0,.07,0,.14,0,.23a3.06,3.06,0,0,1,0,.32,2.93,2.93,0,0,1-.07,1.32.89.89,0,0,1-.08.17,13.8,13.8,0,0,1-2,1.28c-.44.25-.9.47-1.39.7h0l0,0c-.81.37-1.66.7-2.54,1s-2,.68-3.06,1c-1.74.51-3.52,1-5.29,1.4h-.06l-3.4.86c-1,.25-3.12-2.57-3.76-3.23a6.18,6.18,0,0,1-.66-.74,2.88,2.88,0,0,1-.68-1.19c-.1-.53.12-1,.8-1.49a13,13,0,0,1,3.71-1.47l6.52-1.81,1.49-.43.44-.11,1.43-.4,1.12-.32.09,0c1.66-.45,3.15-.87,4.3-1.17A13.61,13.61,0,0,1,116.72,268.39Z" style="fill: rgb(38, 50, 56); transform-origin: 106.076px 274.793px;" id="elob3o241gt2" class="animable"></path><g id="eljjnlgj5zv4"><path d="M111.57,277.59l0,0c-.8.37-1.66.71-2.54,1s-2,.68-3.06,1c-1.73.5-3.52.95-5.28,1.39h-.06c-.78-1.63-2.75-4.7-2.75-4.7A20,20,0,0,0,111.57,277.59Z" style="opacity: 0.2; isolation: isolate; transform-origin: 104.725px 278.63px;" class="animable"></path></g><g id="elilj5efby7b"><path d="M117.82,273.4l-.18.05c-3.18.79-7.07,1.22-9.43-1a3,3,0,0,1-.61-1.69l1.43-.4,1.12-.32.09,0a3.34,3.34,0,0,0,.44.33l5,2.8c.6.33,1.5-.24,1.93,0A.4.4,0,0,1,117.82,273.4Z" style="opacity: 0.2; isolation: isolate; transform-origin: 112.71px 272.065px;" class="animable"></path></g><path d="M114.49,256.66c.59,3.37,1.47,7.77,2.23,11.73.31,1.6.59,3.14.84,4.51a3.94,3.94,0,0,1,0,1.87.89.89,0,0,1-.08.17,2.35,2.35,0,0,1-2,1.28,3.83,3.83,0,0,1-1.75-.18,5.49,5.49,0,0,1-3.54-5.51l-.09-.5c-.62-3.34-1.46-8.38-1.73-11.59-.09-1.13-.6-4.36-.31-5.45,1.14-1.42,2.4-1.81,4.78-.91C114.64,252.74,114.2,255,114.49,256.66Z" style="fill: rgb(38, 50, 56); transform-origin: 112.822px 263.925px;" id="eltrjmvpx8vz8" class="animable"></path><path d="M100.67,301.51l-.43.15a26.67,26.67,0,0,1-9.06,1.58h0c-.26-9.32-2-18-5.93-24.61h0c-1.06-1.8-1.36-3.1-1.14-4,.66-.21,1.35-.39,2.05-.54a27.81,27.81,0,0,1,5-.53c.29,0,.64,0,1,0h.48l.11,0,.38.15a4.24,4.24,0,0,1,.84.39,5.08,5.08,0,0,1,1,.89,12.3,12.3,0,0,1,1.93,3.21q.27.62.51,1.29a.54.54,0,0,1,.05.11C99.17,284.52,100.39,292.1,100.67,301.51Z" style="fill: rgb(64, 123, 255); transform-origin: 92.3562px 288.4px;" id="ela0llpnfy2j6" class="animable"></path><g id="eldywfhxfo759"><path d="M100.67,301.51l-.43.15a26.67,26.67,0,0,1-9.06,1.58h0c-.26-9.32-2-18-5.93-24.61h0c-1.06-1.8-1.36-3.1-1.14-4,.66-.21,1.35-.39,2.05-.54a27.81,27.81,0,0,1,5-.53c.29,0,.64,0,1,0h.48l.11,0,.38.15a4.24,4.24,0,0,1,.84.39,5.08,5.08,0,0,1,1,.89,12.3,12.3,0,0,1,1.93,3.21q.27.62.51,1.29a.54.54,0,0,1,.05.11C99.17,284.52,100.39,292.1,100.67,301.51Z" style="fill: rgb(255, 255, 255); opacity: 0.5; transform-origin: 92.3562px 288.4px;" class="animable"></path></g><path d="M103,293.34c0,2.89,0,5.14,0,7.18l-.14.07c-.24.11-.47.23-.72.33h0l-.08,0c-.44.2-.89.38-1.34.55l-.43.15C100,293.07,99,286,97.42,281.14a25.68,25.68,0,0,0-1-2.6,13.23,13.23,0,0,0-1.78-3.11,5.24,5.24,0,0,0-1.2-1.13,3.34,3.34,0,0,0-.69-.35l-.64-.24h.57l.35,0a20.08,20.08,0,0,1,3.09.39c1.36.31,2.51.81,2.91,1.61.21.43.41.87.6,1.3a37.46,37.46,0,0,1,1.39,3.83v0A46.73,46.73,0,0,1,103,293.34Z" style="fill: rgb(38, 50, 56); transform-origin: 97.555px 287.665px;" id="elf5umjpyuyd" class="animable"></path><path d="M75.67,297.41c-1.25-7.52-3.28-12.78-3.26-15.63a3.42,3.42,0,0,1,.22-1.28c1.87-4.55,7.26-4.56,11.39-5.86h0c-.22.9.08,2.2,1.14,4h0c3.9,6.6,5.67,15.29,5.93,24.61a27.09,27.09,0,0,1-9.09-1.59,27.81,27.81,0,0,1-4.21-1.95c-.69-.4-1.36-.82-2-1.29Z" style="fill: rgb(38, 50, 56); transform-origin: 81.7496px 288.945px;" id="eldc0eihfc5ja" class="animable"></path><path d="M83.56,276.46a3.87,3.87,0,0,0,1.15,1.66q3.15,3.18,6.31,6.37c1-.87,1.82-1.57,3.24-2.76a9,9,0,0,0,2.79.84c.08-1.35,2-2.48-2.68-7.63-1-1.14-3.43-1.87-5-2C84.47,272.46,83.26,275.3,83.56,276.46Z" style="fill: rgb(64, 123, 255); transform-origin: 90.5121px 278.688px;" id="el5ktirbk24a3" class="animable"></path><path d="M85,266.08c1,2.75.75,7.44,1.54,10.53.54,2.12,8.13,4.69,8.13,4.69s2.89-2.94.27-4.7c-2.19-1.47-2.65-3.38-2.41-5.76Z" style="fill: rgb(255, 181, 115); transform-origin: 90.5192px 273.69px;" id="elilhc74ua3oj" class="animable"></path><g id="elxksslibduso"><path d="M88.09,268l4.46,2.81a10.93,10.93,0,0,0-.06,2c-1.53,0-3.83-1.34-4.21-2.88A5.15,5.15,0,0,1,88.09,268Z" style="opacity: 0.2; isolation: isolate; transform-origin: 90.3093px 270.405px;" class="animable"></path></g><path d="M92.77,263.14c.62-5.05-.73-7.28.53-10.31.94-.92,3.67.43,3.66,4.45S92.77,263.14,92.77,263.14Z" style="fill: rgb(38, 50, 56); transform-origin: 94.8499px 257.847px;" id="elpsrjdi8sncf" class="animable"></path><path d="M98.11,264.38a11,11,0,0,1,0,1.3c-.45,4.92-6,7.95-10.16,4.79a7.2,7.2,0,0,1-2.13-2.5c-.94-1.79-1.3-4.05-1.94-7.12a6.47,6.47,0,0,1,0-3,6.57,6.57,0,0,1,8-4.76C96.32,254.16,98.13,260,98.11,264.38Z" style="fill: rgb(255, 181, 115); transform-origin: 90.9165px 262.324px;" id="eliiqw68qcmi9" class="animable"></path><path d="M85,264.63l3.26.6L87,260.8l1.72-2.05-.07-3.22s-6.39.44-8.2.84c-.63.14-.88.81-.94,1.61a6,6,0,0,0,3.1,5.54A12.89,12.89,0,0,0,85,264.63Z" style="fill: rgb(38, 50, 56); transform-origin: 84.1116px 260.38px;" id="eljswkm7mlp8" class="animable"></path><path d="M94.72,266.48h0a3.54,3.54,0,0,1-3.09-1,.12.12,0,0,1,0-.17.12.12,0,0,1,.14,0,3.37,3.37,0,0,0,2.89.93.12.12,0,0,1,.14.11h0a.11.11,0,0,1-.11.12Z" style="fill: rgb(38, 50, 56); transform-origin: 93.1976px 265.907px;" id="eldlm6z1x4uwk" class="animable"></path><path d="M87.09,265.26c.44,1.28-.07,2.53-1.27,2.55h0a2.35,2.35,0,0,1-.51-.06,4.61,4.61,0,0,1-2.82-2.08,2.06,2.06,0,0,1,1.3-3.2c1.5-.26,2.8,1.38,3.27,2.66A.5.5,0,0,1,87.09,265.26Z" style="fill: rgb(255, 181, 115); transform-origin: 84.6833px 265.126px;" id="elrnq4413b7s" class="animable"></path><path d="M90.59,261.15c0,.39.3.67.56.64s.41-.38.35-.77-.31-.67-.56-.64S90.53,260.76,90.59,261.15Z" style="fill: rgb(38, 50, 56); transform-origin: 91.0453px 261.085px;" id="el9me6b4eb51e" class="animable"></path><path d="M95,260.52c0,.39.31.67.56.63s.41-.37.35-.77-.3-.66-.56-.63S94.91,260.13,95,260.52Z" style="fill: rgb(38, 50, 56); transform-origin: 95.4496px 260.451px;" id="elf1erdl1xrbw" class="animable"></path><path d="M94.26,260.91a14.1,14.1,0,0,0,2.33,3,2.22,2.22,0,0,1-1.87.52Z" style="fill: rgb(255, 86, 82); transform-origin: 95.425px 262.688px;" id="elb2pdo93v36v" class="animable"></path><path d="M89.68,259.93a.24.24,0,0,0,.21-.12,1.82,1.82,0,0,1,1.35-1,.23.23,0,0,0,.21-.25.23.23,0,0,0-.25-.21h0a2.27,2.27,0,0,0-1.71,1.21.22.22,0,0,0,.08.31A.2.2,0,0,0,89.68,259.93Z" style="fill: rgb(38, 50, 56); transform-origin: 90.4535px 259.14px;" id="elbuuu8i8z98b" class="animable"></path><path d="M97.29,258.74a.29.29,0,0,0,.13,0,.23.23,0,0,0,.06-.33,2.25,2.25,0,0,0-1.84-1,.24.24,0,0,0-.23.23.23.23,0,0,0,.24.23h0a1.82,1.82,0,0,1,1.43.84A.24.24,0,0,0,97.29,258.74Z" style="fill: rgb(38, 50, 56); transform-origin: 96.4676px 258.081px;" id="elthyb1n66eb" class="animable"></path><g id="elfekaswuvu5"><path d="M98.11,264.38a11,11,0,0,1,0,1.3c-.45,4.92-6,7.95-10.16,4.8A7.32,7.32,0,0,1,85.77,268a.94.94,0,0,1,0-.16h0c1.2,0,1.71-1.27,1.27-2.55a.5.5,0,0,0,0-.13c1.1-.95,4.23-.68,5.42-.61C94.37,264.65,96.39,265,98.11,264.38Z" style="opacity: 0.2; isolation: isolate; transform-origin: 91.9479px 268.073px;" class="animable"></path></g><path d="M79.23,255a2.11,2.11,0,0,0,1,2.35,4.8,4.8,0,0,0,2.64.61,13.68,13.68,0,0,0,6.64-1.74,15.67,15.67,0,0,1,3.69-1.88c1.34-.32,3,.11,3.54,1.4a4.2,4.2,0,0,0-2.95-5.95c-2.35-.48-4.6,1.07-7,1.45a29.1,29.1,0,0,1-3.5.14,5.85,5.85,0,0,0-3.3,1C79.08,253.05,79.23,255,79.23,255Z" style="fill: rgb(38, 50, 56); transform-origin: 88.1633px 253.834px;" id="elj0zzburfgh" class="animable"></path><g id="eltkzzzghqsnf"><path d="M74.75,286.13c4.76-4.75,6.76,3.84,6.65,7.73V294C81.24,298.78,79,300,79,300s-5.38-13.82-5-13.89C74,286,74.43,286.45,74.75,286.13Z" style="opacity: 0.2; isolation: isolate; transform-origin: 77.6925px 292.368px;" class="animable"></path></g><path d="M80.15,290.31A24.53,24.53,0,0,0,77,295c-.35.62-.76,1.32-1.2,2.12l-.17.34c-.13.22-.24.44-.34.65A26.88,26.88,0,0,1,69,291.5a47.16,47.16,0,0,1,2.5-7.8c.25-.55.61-1.3.92-1.92s.58-1.18.59-1.19a7.3,7.3,0,0,1,3-2.94c1-.35,3.42,5.53,4.3,9.36.06.29.12.58.17.86l0,.13a4.64,4.64,0,0,1,0,1.85.6.6,0,0,1-.08.16.88.88,0,0,1-.14.17l0,0A.53.53,0,0,0,80.15,290.31Z" style="fill: rgb(38, 50, 56); transform-origin: 74.7866px 287.873px;" id="el7ulqyu2x52r" class="animable"></path></g><g id="freepik--character-1--inject-1" class="animable" style="transform-origin: 249.215px 284.314px;"><path d="M212.85,192.17s-8.37,16.41-8.72,15.72l-10.43-20-4.55,2.81s9.32,29.16,15,31.53,18.47-24.79,18.47-24.79C222.37,188.49,212.85,192.17,212.85,192.17Z" style="fill: rgb(255, 255, 255); transform-origin: 205.885px 205.133px;" id="elezauf94in8" class="animable"></path><g id="elapqfuoyhjvm"><path d="M212.85,192.17s-8.37,16.41-8.72,15.72l-10.43-20-4.55,2.81s9.32,29.16,15,31.53,18.47-24.79,18.47-24.79C222.37,188.49,212.85,192.17,212.85,192.17Z" style="opacity: 0.1; isolation: isolate; transform-origin: 205.885px 205.133px;" class="animable"></path></g><path d="M203,189.76l-5.08.89a2.83,2.83,0,0,1-3.27-2.29l-2.94-16.89a2.82,2.82,0,0,1,1.78-3.12l5.08-.89a2.82,2.82,0,0,1,3.26,2.29l2.95,16.9A2.81,2.81,0,0,1,203,189.76Z" style="fill: rgb(64, 123, 255); transform-origin: 198.245px 179.055px;" id="el3ezp89mvyyg" class="animable"></path><path d="M203,189.76a2.38,2.38,0,0,1-.52.15l-5.28.92a2.82,2.82,0,0,1-3.26-2.29L191,171.65a2.82,2.82,0,0,1,2.29-3.27l.2,0,5.08-.89a2.82,2.82,0,0,1,3.26,2.29l2.95,16.9A2.81,2.81,0,0,1,203,189.76Z" style="fill: rgb(38, 50, 56); transform-origin: 197.887px 179.16px;" id="elodb2kvq07in" class="animable"></path><g id="elw4fenask73n"><rect x="190.8" y="168.4" width="4.02" height="4.02" rx="1.07" style="fill: rgb(38, 50, 56); transform-origin: 192.81px 170.41px; transform: rotate(-10.73deg);" class="animable"></rect></g><g id="elzfkropz0xes"><rect x="190.8" y="168.4" width="4.02" height="4.02" rx="1.14" style="fill: rgb(255, 255, 255); opacity: 0.5; transform-origin: 192.81px 170.41px; transform: rotate(-10.9722deg);" class="animable"></rect></g><path d="M193.58,170.23a1,1,0,1,1-1.16-.79A1,1,0,0,1,193.58,170.23Z" style="fill: rgb(38, 50, 56); transform-origin: 192.599px 170.424px;" id="elvas7swa2kth" class="animable"></path><g id="elq4b9ek79q5"><path d="M193.12,170.31a.53.53,0,0,1-.41.62.54.54,0,0,1-.62-.42.52.52,0,0,1,.42-.61A.51.51,0,0,1,193.12,170.31Z" style="opacity: 0.3; transform-origin: 192.605px 170.413px;" class="animable"></path></g><path d="M188.75,187.17l.67-4.35a1.64,1.64,0,0,1,1-1.26l5.44-2.45a1.66,1.66,0,0,1,2.32,1.27l.39,2.62a1.55,1.55,0,0,1-.95,1.66,4.49,4.49,0,0,0-2.73,3.2c-.71,2.46-.21,3.42-2.4,4.19S188.5,192.09,188.75,187.17Z" style="fill: rgb(178, 91, 82); transform-origin: 193.657px 185.639px;" id="elkmuamh909kp" class="animable"></path><g id="freepik--group--inject-1" class="animable" style="transform-origin: 257.554px 286.065px;"><path d="M257.17,241.3l-34.35,5.9a165.72,165.72,0,0,0-6.46-32.34c-6.93-23.56-2.67-23.25-2.67-23.25a63.49,63.49,0,0,1,9.57-3.45c4.82-1.12,8.94-2.63,13.85-3.18a98.65,98.65,0,0,1,12.16-.45c.48,2.81.95,5.77,1.41,8.82.93,6,1.84,12.37,2.67,18.43C255.26,225.72,256.76,238.09,257.17,241.3Z" style="fill: rgb(255, 255, 255); transform-origin: 234.782px 215.85px;" id="el2yy2kpg2fx3" class="animable"></path><path d="M219,189.48a8,8,0,0,0,8.2-4.61,5,5,0,0,0,.16-2.64A11.49,11.49,0,0,0,219,189.48Z" style="fill: rgb(64, 123, 255); transform-origin: 223.233px 185.882px;" id="el90z9sdg1w9v" class="animable"></path><path d="M219,189.48a8,8,0,0,0,8.2-4.61,5,5,0,0,0,.16-2.64A11.49,11.49,0,0,0,219,189.48Z" style="fill: rgb(255, 255, 255); transform-origin: 223.233px 185.882px;" id="elarvne6kc1l7" class="animable"></path><path d="M234.35,180c.68,1.73,1.31,3.92,3,4.72a6.76,6.76,0,0,0,2.57.5,36.89,36.89,0,0,0,6.28-.53,7.93,7.93,0,0,0-.65-4.7,4.74,4.74,0,0,0-3.6-2.38,7.94,7.94,0,0,0-3.61.87C237,179,235.67,179.44,234.35,180Z" style="fill: rgb(64, 123, 255); transform-origin: 240.33px 181.415px;" id="eldpksynkezq" class="animable"></path><path d="M234.35,180c.68,1.73,1.31,3.92,3,4.72a6.76,6.76,0,0,0,2.57.5,36.89,36.89,0,0,0,6.28-.53,7.93,7.93,0,0,0-.65-4.7,4.74,4.74,0,0,0-3.6-2.38,7.94,7.94,0,0,0-3.61.87C237,179,235.67,179.44,234.35,180Z" style="fill: rgb(255, 255, 255); transform-origin: 240.33px 181.415px;" id="el6s1ojx4d5ol" class="animable"></path><g id="el5blf5fn9xdp"><g style="opacity: 0.2; isolation: isolate; transform-origin: 225.43px 185.29px;" class="animable"><path d="M227,182.79a5.17,5.17,0,0,0-3.22,5,11.3,11.3,0,0,0,2.4-2,3.7,3.7,0,0,0,.88-2.85S227.06,182.78,227,182.79Z" id="el3mpx34bdarz" class="animable" style="transform-origin: 225.43px 185.29px;"></path></g></g><g id="eli5dt0lyz0qp"><path d="M238.1,184.07a7.32,7.32,0,0,1-2.63-3.2,3.41,3.41,0,0,1-.08-.37,7.16,7.16,0,0,0,2.35-.46,2.11,2.11,0,0,1,2.21.47C240.35,181,240,183.34,238.1,184.07Z" style="opacity: 0.2; transform-origin: 237.744px 181.989px;" class="animable"></path></g><path d="M237.3,186.35a23.59,23.59,0,0,1-7.44,5.07,4.34,4.34,0,0,1-3.82-.08l-.35-.19a3,3,0,0,1-1.52-2.64v-.06a3,3,0,0,1,.16-.89,5.23,5.23,0,0,0,2.49-2.76,2.52,2.52,0,0,0,.18-.65,9.39,9.39,0,0,0-1.07-5.55l7.66-9.2c-.08,3.09.22,8,1.88,11.47a7.32,7.32,0,0,0,2.63,3.2C238.57,184.75,237.64,185.93,237.3,186.35Z" style="fill: rgb(178, 91, 82); transform-origin: 231.2px 180.612px;" id="el0pho6mhtb88j" class="animable"></path><g id="el6n5xcmyqu9j"><path d="M231,175.67c.15,2.13-2.19,6.76-4.18,5.43a14.67,14.67,0,0,0-.89-2.48l4.53-5.44A7.13,7.13,0,0,1,231,175.67Z" style="opacity: 0.2; isolation: isolate; transform-origin: 228.468px 177.258px;" class="animable"></path></g><path d="M231.63,158.43a8.82,8.82,0,0,0-12.16-2.78c-5.79,3.6-5.05,13.19-2.7,18.68,2.61,6.08,11,7.65,14.95,1.91,2.66-3.82,1.92-7.54,1.22-14A8.75,8.75,0,0,0,231.63,158.43Z" style="fill: rgb(178, 91, 82); transform-origin: 224.309px 167.056px;" id="elsnznhwcc41" class="animable"></path><path d="M236.36,165.4,232.43,170s-1.27-.81-1.7-5.21c-.15-1.14-1.4-1.43-1.75-2.59s.07-5,1.1-5.09,6.3-.33,6.3-.33Z" style="fill: rgb(178, 91, 82); transform-origin: 232.619px 163.39px;" id="el1pelc8e1vqi" class="animable"></path><g id="elydq0urzsoqr"><path d="M236.36,165.4,232.43,170s-1.27-.81-1.7-5.21c-.15-1.14-1.4-1.43-1.75-2.59s.07-5,1.1-5.09,6.3-.33,6.3-.33Z" style="opacity: 0.2; isolation: isolate; transform-origin: 232.619px 163.39px;" class="animable"></path></g><path d="M239.14,294.51c-.55,8.25-3.34,37.58-3.34,37.58,2.14,31.82-3.2,75.19-3.2,75.19l-6.9.31S221.77,304,222.25,293.48Z" style="fill: rgb(178, 91, 82); transform-origin: 230.675px 350.535px;" id="elhvzougss4g6" class="animable"></path><path d="M239.14,294.51c-.18,2.62-.57,7.37-1,12.62-.09,1-.18,1.95-.26,2.94-1,10.6-2,22-2,22,2.14,31.82-3.2,75.19-3.2,75.19l-6.9.31S221.78,304,222.24,293.48Z" style="fill: rgb(178, 91, 82); transform-origin: 230.672px 350.525px;" id="eler4bbwq7pwu" class="animable"></path><path d="M248.25,242.82l-4.32,23.9c-3.72,43.4-7.13,78.2-7.13,78.2,0,.66.11,1.34.19,2.05a165.94,165.94,0,0,1-.15,36.13l-1.69,15.13-11,.22c.33-10.3-2.27-39.89-2.53-67.21-.44-45.21,1-85.22,1-85.22Z" style="fill: rgb(64, 123, 255); transform-origin: 234.893px 320.635px;" id="el75ukqg8ie1n" class="animable"></path><g id="el15ldgnyli0t"><path d="M248.25,242.82l-4.32,23.9c-3.72,43.4-7.13,78.2-7.13,78.2,0,.66.11,1.34.19,2.05a165.94,165.94,0,0,1-.15,36.13l-1.69,15.13-11,.22c.33-10.3-2.27-39.89-2.53-67.21-.44-45.21,1-85.22,1-85.22Z" style="opacity: 0.5; transform-origin: 234.893px 320.635px;" class="animable"></path></g><g id="elmu69pq6ol2c"><path d="M244.78,258.75l-3.09,33.58c-2.11-13.3-4.44-30.1-2.81-44Z" style="opacity: 0.3; isolation: isolate; transform-origin: 241.556px 270.33px;" class="animable"></path></g><path d="M297.48,395c-3.8-7.58-9.41-17.1-9.41-17.1l10.8,3.76s4.11,8.64,5,11.22C301.92,393.48,299.34,394.26,297.48,395Z" style="fill: rgb(178, 91, 82); transform-origin: 295.97px 386.45px;" id="elvl78qk7h14l" class="animable"></path><g id="elmg5o2v9oyhh"><polygon points="252.11 302.39 253.7 307.5 267.85 302.69 266.85 298.36 252.11 302.39" style="opacity: 0.2; isolation: isolate; transform-origin: 259.98px 302.93px;" class="animable"></polygon></g><path d="M262.72,281.23c2.25,9.73,7.91,32.36,9.87,38.84,11.82,16.18,18.46,42.7,27.79,64.84l-6.05,4.16s-26.46-46.4-34.3-65.78c-2-5-11.06-28.66-13.46-37.19Z" style="fill: rgb(178, 91, 82); transform-origin: 273.475px 335.15px;" id="eljf0grb0vmz" class="animable"></path><path d="M289.67,384.18s-21.16-39.33-26.7-48.72c-12.38-21-27.66-90.74-27.66-90.74l21.86-3.42s17.57,82.05,18.8,83.89c11.38,17.16,23.54,54.28,23.54,54.28Z" style="fill: rgb(64, 123, 255); transform-origin: 267.41px 312.74px;" id="eltx0z9smksgq" class="animable"></path><g id="elk6quv9ukmb"><g style="opacity: 0.5; transform-origin: 267.41px 312.74px;" class="animable"><path d="M289.67,384.18s-21.16-39.33-26.7-48.72c-12.38-21-27.66-90.74-27.66-90.74l21.86-3.42s17.57,82.05,18.8,83.89c11.38,17.16,23.54,54.28,23.54,54.28Z" id="elev84e6kango" class="animable" style="transform-origin: 267.41px 312.74px;"></path></g></g><path d="M222.62,166.25c-.33.06-.53.52-.44,1s.42.9.76.84.55-.52.46-1S223,166.19,222.62,166.25Z" style="fill: rgb(38, 50, 56); transform-origin: 222.79px 167.17px;" id="el8d57d4c4m3o" class="animable"></path><path d="M216.16,167.2c-.35.05-.55.52-.46,1s.44.89.78.84.54-.53.45-1.05S216.5,167.14,216.16,167.2Z" style="fill: rgb(38, 50, 56); transform-origin: 216.315px 168.119px;" id="els4krfl96zd" class="animable"></path><path d="M220.49,171.53a3,3,0,0,1-2.56,0,19.15,19.15,0,0,0,1.72-4.86Z" style="fill: rgb(79, 15, 26); transform-origin: 219.21px 169.243px;" id="el9rcoiuvvz5e" class="animable"></path><path d="M225.21,163.42h0a.3.3,0,0,0,0-.43,3,3,0,0,0-2.69-.83h0a.29.29,0,0,0-.21.37.3.3,0,0,0,.37.23,2.46,2.46,0,0,1,2.12.68.33.33,0,0,0,.27.08A.32.32,0,0,0,225.21,163.42Z" style="fill: rgb(38, 50, 56); transform-origin: 223.799px 162.815px;" id="el0v9rf2phx0h" class="animable"></path><path d="M215,164.92a2.44,2.44,0,0,1,1.58-1.58h0a.31.31,0,0,0,.2-.31.33.33,0,0,0-.34-.29,3.1,3.1,0,0,0-2,2v0a.26.26,0,0,0,.33.35A.37.37,0,0,0,215,164.92Z" style="fill: rgb(38, 50, 56); transform-origin: 215.599px 163.924px;" id="elqgihbcq7pyi" class="animable"></path><path d="M224.05,409.08c-2,1.8-5.81,3.7-12.07,5.07-1.4.31-.95,3.68,2.46,3.68s9.78-.87,12.24-1c4-.28,10.33-1,8.42-4.55,0,0-.88-.59-2.46-6l-7,.61A22.71,22.71,0,0,1,224.05,409.08Z" style="fill: rgb(178, 91, 82); transform-origin: 223.344px 412.055px;" id="elgb5k0n8iiu9" class="animable"></path><g id="el9kl0zwvgml4"><path d="M253.35,211.78s-.06,0-.11-.07-2-2.38-4.57-8.84c-3.44-8.59-4-11.34-4-11.34.78-2.44,4.41-2,5.44.28.21.49.42,1,.62,1.54C251.61,199.38,252.52,205.72,253.35,211.78Z" style="opacity: 0.2; isolation: isolate; transform-origin: 249.01px 200.835px;" class="animable"></path></g><path d="M265.72,229.9l-1.27,3.69a4.69,4.69,0,0,0,.17,3.49l1.95,4.2a1.13,1.13,0,0,0,1.34.61l3-.88a1.13,1.13,0,0,0,.79-1.26l-.8-4.76-1.2-5.2S266.22,228.48,265.72,229.9Z" style="fill: rgb(178, 91, 82); transform-origin: 267.953px 235.587px;" id="elnprq3rges3r" class="animable"></path><path d="M245.24,186.16s-3.22,6.28,3.33,11.18a176.24,176.24,0,0,0,16.71,11.14,3.36,3.36,0,0,1,1.65,3.12l-1.26,18.32.39.54a3.69,3.69,0,0,0,4.11,1.37h0c.32-1.17,6.1-22.89,4.52-27-.78-2.05-3.32-5.32-11.29-11.79-2.51-2-4.86-2.65-5.6-3.53C252.4,183.1,247.32,183.8,245.24,186.16Z" style="fill: rgb(255, 255, 255); transform-origin: 259.706px 208.235px;" id="el98zrvqy8g5p" class="animable"></path><path d="M222.67,173.21c-.33.06-.53.52-.44,1s.42.9.77.84.54-.52.45-1.05S223,173.15,222.67,173.21Z" style="fill: rgb(38, 50, 56); transform-origin: 222.84px 174.129px;" id="el6q9hvncav4" class="animable"></path></g><path d="M233.5,163.38c-1.86.49-2.58,3.36-2.49,5.19.09,2,1.54,3.39,3.13,2.1a6.46,6.46,0,0,0,2.25-4C236.67,164.64,235.36,162.88,233.5,163.38Z" style="fill: rgb(178, 91, 82); transform-origin: 233.715px 167.232px;" id="elpku96utligo" class="animable"></path><path d="M219.62,408.32c-1.23-.07-2.41-.34-2.74-1a1,1,0,0,1,.07-1.1,1.11,1.11,0,0,1,.76-.53c1.61-.38,4.83,2,5,2.06a.28.28,0,0,1,.1.27.26.26,0,0,1-.19.2A14.06,14.06,0,0,1,219.62,408.32Zm-1.4-2.18a1.71,1.71,0,0,0-.45,0,.69.69,0,0,0-.45.32c-.18.31-.13.46-.08.56.41.72,2.83.89,4.61.74a9.55,9.55,0,0,0-3.64-1.63Z" style="fill: rgb(64, 123, 255); transform-origin: 219.781px 407.004px;" id="elx1ye2vjypgr" class="animable"></path><path d="M222.52,408.23l-.1,0c-1.12-.66-3.29-3.11-3-4.29a.84.84,0,0,1,.88-.66,1.54,1.54,0,0,1,1.24.44c1.17,1.21,1.27,4.08,1.28,4.2a.26.26,0,0,1-.07.24Zm-2.1-4.47-.14-.05c-.4,0-.43.2-.45.26-.2.68,1.32,2.61,2.46,3.49a6.37,6.37,0,0,0-1.1-3.36A1.07,1.07,0,0,0,220.42,403.76Z" style="fill: rgb(64, 123, 255); transform-origin: 221.11px 405.751px;" id="el9q1bhacrl3s" class="animable"></path><path d="M224.16,406.37l9.25.09a.85.85,0,0,1,.8.75l1.78,8.56c.13.87-1.36,1.85-1.45,1.85-5.65.56-17.81.72-21.83.59s-4.43-4.57-2.78-4.92c7.4-1.56,10.23-4,12.62-6.24A2.19,2.19,0,0,1,224.16,406.37Z" style="fill: rgb(38, 50, 56); transform-origin: 222.509px 412.311px;" id="el9nq0uy3c784" class="animable"></path><path d="M293.22,395.31c-.93.68-1.93,1.18-2.55.92a1,1,0,0,1-.6-.84,1.05,1.05,0,0,1,.23-.83c.94-1.23,4.65-1.44,4.8-1.45a.28.28,0,0,1,.24.13.24.24,0,0,1,0,.26A12.88,12.88,0,0,1,293.22,395.31Zm-2.29-.74a1.67,1.67,0,0,0-.31.28.64.64,0,0,0-.13.5c.05.33.17.41.27.46.72.27,2.57-1,3.76-2.19a8.8,8.8,0,0,0-3.59,1Z" style="fill: rgb(64, 123, 255); transform-origin: 292.718px 394.705px;" id="elky123pfz8zs" class="animable"></path><path d="M295.26,393.54l-.09,0c-1.19.19-4.2-.29-4.73-1.29a.79.79,0,0,1,.25-1,1.42,1.42,0,0,1,1.16-.41c1.55.18,3.32,2.19,3.4,2.27a.22.22,0,0,1,.09.21Zm-4.16-2-.13,0c-.27.25-.19.4-.17.45.27.61,2.5,1.11,3.84,1.07a6,6,0,0,0-2.78-1.78A1,1,0,0,0,291.1,391.56Z" style="fill: rgb(64, 123, 255); transform-origin: 292.849px 392.206px;" id="elwvqqcs67yck" class="animable"></path><path d="M295.34,391.23l6.72-5.41a.79.79,0,0,1,1,.07l6.34,5.12c.61.55.12,2.13.06,2.18-3.75,3.75-12.42,11.05-15.39,13.33s-5.9-.67-4.92-1.89c4.41-5.51,5-8.9,5.42-12A2,2,0,0,1,295.34,391.23Z" style="fill: rgb(38, 50, 56); transform-origin: 299.33px 396.517px;" id="elkjq0gkofhvg" class="animable"></path><path d="M254.5,238.59l-31.84,4.23s-1.84-.81-3.45-5.44.17-11.16.17-11.16L246.57,222a21.24,21.24,0,0,0,7.68,16.35Z" style="fill: rgb(255, 255, 255); transform-origin: 236.518px 232.41px;" id="elk20ddhjlhln" class="animable"></path><g id="elq0yppsspt98"><path d="M254.5,238.59l-31.84,4.23s-1.84-.81-3.45-5.44.17-11.16.17-11.16L246.57,222a21.24,21.24,0,0,0,7.68,16.35Z" style="opacity: 0.1; isolation: isolate; transform-origin: 236.518px 232.41px;" class="animable"></path></g><path d="M203.15,189.73l-.2,0a2.81,2.81,0,0,0,1.78-3.11l-2.95-16.9a2.82,2.82,0,0,0-3.26-2.29l-5.08.89a2.23,2.23,0,0,1,.52-.15l5.27-.93a2.84,2.84,0,0,1,3.27,2.3l2.94,16.9A2.82,2.82,0,0,1,203.15,189.73Z" id="elmhgochogv9" class="animable" style="transform-origin: 199.463px 178.465px;"></path><g id="el8acl4m0qrgb"><path d="M203.15,189.73l-.2,0a2.81,2.81,0,0,0,1.78-3.11l-2.95-16.9a2.82,2.82,0,0,0-3.26-2.29l-5.08.89a2.23,2.23,0,0,1,.52-.15l5.27-.93a2.84,2.84,0,0,1,3.27,2.3l2.94,16.9A2.82,2.82,0,0,1,203.15,189.73Z" style="fill: rgb(255, 255, 255); opacity: 0.7; transform-origin: 199.463px 178.465px;" class="animable"></path></g><path d="M236.4,157c-.19.13-6.18.75-8.52,1.54a1.84,1.84,0,0,0-1.48-1.43,4.44,4.44,0,0,0-2.16.22,14.71,14.71,0,0,0-4.62,2.12,3.56,3.56,0,0,0-1.18-.94,1.21,1.21,0,0,0-1.39.27,5.08,5.08,0,0,0-.35.7.66.66,0,0,1-.66.36c0-.32-1.94-3.07,1.21-6.79s9.34-2.77,14-1.81a10.69,10.69,0,0,1,4.1,1.62,5.47,5.47,0,0,1,2.37,3.61c.23,1.65-.44,3.59.66,4.86A4.35,4.35,0,0,1,236.4,157Z" style="fill: rgb(38, 50, 56); transform-origin: 226.915px 155.852px;" id="el5to0sb0g95i" class="animable"></path><rect x="222.51" y="394.73" width="14.41" height="3.72" style="fill: rgb(64, 123, 255); transform-origin: 229.715px 396.59px;" id="elacfuh5w1so" class="animable"></rect><g id="elykayr2ham2p"><rect x="286.36" y="378.49" width="14.41" height="3.72" style="fill: rgb(64, 123, 255); transform-origin: 293.565px 380.35px; transform: rotate(-25.47deg);" class="animable"></rect></g><g id="el7cvyi09f3hn"><path d="M254.5,238.59l-.25-.21A21.24,21.24,0,0,1,246.57,222Z" style="opacity: 0.2; isolation: isolate; transform-origin: 250.535px 230.295px;" class="animable"></path></g></g><defs>     <filter id="active" height="200%">         <feMorphology in="SourceAlpha" result="DILATED" operator="dilate" radius="2"></feMorphology>                <feFlood flood-color="#32DFEC" flood-opacity="1" result="PINK"></feFlood>        <feComposite in="PINK" in2="DILATED" operator="in" result="OUTLINE"></feComposite>        <feMerge>            <feMergeNode in="OUTLINE"></feMergeNode>            <feMergeNode in="SourceGraphic"></feMergeNode>        </feMerge>    </filter>    <filter id="hover" height="200%">        <feMorphology in="SourceAlpha" result="DILATED" operator="dilate" radius="2"></feMorphology>                <feFlood flood-color="#ff0000" flood-opacity="0.5" result="PINK"></feFlood>        <feComposite in="PINK" in2="DILATED" operator="in" result="OUTLINE"></feComposite>        <feMerge>            <feMergeNode in="OUTLINE"></feMergeNode>            <feMergeNode in="SourceGraphic"></feMergeNode>        </feMerge>            <feColorMatrix type="matrix" values="0   0   0   0   0                0   1   0   0   0                0   0   0   0   0                0   0   0   1   0 "></feColorMatrix>    </filter></defs></svg>